<svg width="36" height="36" viewBox="0 0 36 36" fill="none" xmlns="http://www.w3.org/2000/svg">

<g id="1432w default">

<g id="Frame 2085661490">
<g id="Section">


<g id="Container">
<g id="HorizontalBorder">
<mask id="path-1-inside-1_729_1057" fill="white">
<path d="M-407 -306H733V225H-407V-306Z"/>
</mask>
<path d="M-407 -306V-305H733V-306V-307H-407V-306Z" fill="#3C3C3C" mask="url(#path-1-inside-1_729_1057)"/>
<g id="HorizontalBorder_2">
<g id="Container_2">
<g id="Container_3">
<g id="Icon" clip-path="url(#clip0_729_1057)">
<g id="Component 1">
<path id="Vector" d="M7.26995 6.62823C8.08135 7.15142 8.60789 7.86125 8.82474 8.80827C8.85561 8.9838 8.86276 9.14682 8.86393 9.32499C8.86453 9.39461 8.86513 9.46424 8.86575 9.53597C8.8661 9.61177 8.86645 9.68757 8.86682 9.76567C8.86743 9.84593 8.86803 9.92619 8.86866 10.0089C8.87032 10.2285 8.87161 10.4481 8.87283 10.6677C8.87418 10.8974 8.87586 11.1271 8.8775 11.3568C8.88056 11.7915 8.88332 12.2262 8.88597 12.6609C8.88901 13.156 8.89238 13.651 8.89577 14.146C8.90275 15.1641 8.90931 16.1821 8.91559 17.2002C8.96449 17.1751 9.01338 17.1499 9.06376 17.124C9.12879 17.0909 9.19383 17.0578 9.26083 17.0238C9.32492 16.991 9.389 16.9583 9.45503 16.9245C10.2586 16.5471 11.1495 16.558 11.9844 16.832C12.6662 17.0984 13.1362 17.5646 13.6491 18.0698C13.8119 18.2288 13.9794 18.3822 14.1479 18.5352C14.2065 18.5887 14.2651 18.6423 14.3255 18.6975C14.3834 18.7502 14.4412 18.803 14.5008 18.8574C14.6223 18.9686 14.7438 19.0798 14.8652 19.1911C14.8954 19.2188 14.9257 19.2465 14.9568 19.2751C15.2173 19.5139 15.477 19.7535 15.7365 19.9935C15.933 20.1751 16.1302 20.3558 16.3282 20.5358C16.4767 20.6712 16.6241 20.8077 16.7717 20.9442C16.815 20.9834 16.8584 21.0226 16.9031 21.0631C17.1795 21.3238 17.4057 21.6137 17.6309 21.9185C17.6613 21.9595 17.6916 22.0004 17.7228 22.0426C17.9378 22.3401 17.9378 22.3401 17.9378 22.4786C17.9783 22.4786 18.0188 22.4786 18.0606 22.4786C18.077 22.4332 18.0933 22.3879 18.1102 22.3412C18.4547 21.5426 19.3033 20.8121 19.95 20.2501C20.2034 20.0298 20.4482 19.8016 20.6921 19.5709C21.0059 19.2752 21.3219 18.9828 21.6439 18.696C21.8115 18.5442 21.9761 18.3895 22.1405 18.2343C23.105 17.3262 23.9813 16.6065 25.3682 16.6366C25.9774 16.6747 26.5725 16.86 27.0828 17.2002C27.0831 17.1376 27.0831 17.1376 27.0833 17.0737C27.0869 16.0552 27.0916 15.0367 27.0973 14.0182C27.1001 13.5257 27.1025 13.0332 27.1041 12.5406C27.1055 12.1111 27.1076 11.6815 27.1104 11.252C27.1118 11.0248 27.113 10.7976 27.1134 10.5704C27.1138 10.316 27.1157 10.0618 27.1177 9.80748C27.1176 9.733 27.1175 9.65852 27.1174 9.58179C27.1279 8.62999 27.432 7.78344 28.0965 7.08879C28.9333 6.32964 29.8308 6.16439 30.9173 6.20267C31.2408 6.22619 31.5181 6.32094 31.8088 6.45945C31.8567 6.48097 31.9047 6.50249 31.9541 6.52466C32.8356 6.96388 33.3234 7.70821 33.6501 8.6076C33.7003 8.78041 33.7192 8.93367 33.7197 9.11343C33.72 9.16525 33.7202 9.21707 33.7205 9.27046C33.7205 9.35541 33.7205 9.35541 33.7205 9.44208C33.7207 9.50249 33.7209 9.5629 33.7212 9.62514C33.7218 9.82819 33.7221 10.0312 33.7223 10.2343C33.7227 10.3797 33.7231 10.525 33.7235 10.6704C33.7247 11.1075 33.7254 11.5445 33.7259 11.9815C33.7262 12.1878 33.7265 12.3941 33.7268 12.6004C33.7279 13.2873 33.7288 13.9742 33.7292 14.6611C33.7293 14.8393 33.7294 15.0175 33.7296 15.1958C33.7296 15.2401 33.7296 15.2844 33.7296 15.33C33.7302 16.0451 33.7317 16.7601 33.7337 17.4752C33.7357 18.211 33.7368 18.9469 33.737 19.6828C33.7372 20.0952 33.7377 20.5077 33.7393 20.9201C33.7407 21.3091 33.741 21.6981 33.7403 22.0872C33.7403 22.2289 33.7407 22.3707 33.7415 22.5124C33.7481 23.6785 33.633 24.8114 33.2473 25.9194C33.2266 25.9799 33.2059 26.0403 33.1845 26.1026C32.7548 27.3072 32.0943 28.3834 31.2211 29.3161C31.0678 29.4802 30.9171 29.6464 30.7662 29.8127C30.3941 30.2203 30.0071 30.6121 29.617 31.0024C29.5444 31.0752 29.4718 31.148 29.3992 31.2208C29.2486 31.3718 29.0978 31.5226 28.947 31.6734C28.7542 31.8662 28.5618 32.0595 28.3695 32.2529C28.2203 32.4027 28.0709 32.5522 27.9215 32.7016C27.8504 32.7728 27.7794 32.8441 27.7084 32.9155C27.6097 33.0149 27.5105 33.1139 27.4112 33.2128C27.355 33.269 27.2989 33.3253 27.241 33.3832C26.9506 33.6458 26.7424 33.7449 26.3559 33.7326C26.1583 33.6993 26.0518 33.6083 25.9167 33.4648C25.7963 33.2241 25.8053 32.9887 25.8553 32.7283C25.9482 32.5926 25.9482 32.5926 26.0776 32.4564C26.1281 32.403 26.1785 32.3496 26.2305 32.2947C26.2894 32.2345 26.3485 32.1745 26.4077 32.1146C26.4397 32.0822 26.4717 32.0497 26.5047 32.0163C26.7289 31.7901 26.9554 31.5662 27.1824 31.3427C27.3563 31.1715 27.5296 30.9996 27.7029 30.8278C28.0239 30.5096 28.3452 30.1916 28.6675 29.8746C28.8932 29.6525 29.1182 29.4297 29.3427 29.2063C29.4273 29.1224 29.5122 29.0388 29.5973 28.9555C30.3689 28.2005 31.0411 27.3794 31.4942 26.3913C31.5218 26.3324 31.5493 26.2735 31.5777 26.2128C32.183 24.875 32.3184 23.5604 32.3176 22.1101C32.318 21.9689 32.3184 21.8277 32.3189 21.6864C32.32 21.3051 32.3202 20.9238 32.3203 20.5425C32.3204 20.304 32.3207 20.0655 32.321 19.827C32.3221 19.037 32.3227 18.2471 32.3226 17.4571C32.3226 17.4147 32.3225 17.3722 32.3225 17.3285C32.3225 17.2648 32.3225 17.2648 32.3225 17.1998C32.3225 16.5102 32.3237 15.8207 32.3254 15.1312C32.3271 14.4214 32.328 13.7116 32.3279 13.0018C32.3279 12.604 32.3282 12.2062 32.3295 11.8084C32.3307 11.4346 32.3307 11.0608 32.3298 10.687C32.3297 10.55 32.33 10.4131 32.3307 10.2762C32.3317 10.0889 32.3311 9.90156 32.3301 9.7142C32.3311 9.63358 32.3311 9.63358 32.3321 9.55133C32.3259 8.99156 32.1353 8.51187 31.7517 8.10173C31.2437 7.67043 30.6756 7.57323 30.0289 7.62559C29.6239 7.72336 29.2504 7.91238 28.9855 8.23935C28.6989 8.72306 28.5465 9.11256 28.5474 9.67233C28.5472 9.71789 28.547 9.76344 28.5469 9.81038C28.5464 9.96312 28.5463 10.1158 28.5462 10.2686C28.5459 10.3781 28.5456 10.4876 28.5452 10.5971C28.5445 10.833 28.544 11.0689 28.5436 11.3049C28.543 11.6784 28.5417 12.052 28.5404 12.4255C28.5366 13.4878 28.5333 14.5501 28.5312 15.6123C28.5301 16.1989 28.5283 16.7855 28.5258 17.3721C28.5245 17.6823 28.5236 17.9925 28.5234 18.3027C28.5233 18.5949 28.5223 18.8871 28.5207 19.1793C28.5203 19.286 28.5202 19.3928 28.5204 19.4996C28.5225 20.782 28.2171 21.6459 27.2998 22.569C27.1754 22.6937 27.0509 22.8183 26.9248 22.9413C26.758 23.105 26.6009 23.2733 26.4485 23.4505C26.1717 23.7704 25.8695 24.0632 25.5679 24.3594C25.3164 24.6081 25.0772 24.8623 24.8465 25.1303C24.7215 25.2738 24.5899 25.4093 24.4552 25.5435C24.4092 25.5896 24.3633 25.6358 24.3159 25.6833C24.0969 25.8871 23.9033 25.878 23.6141 25.8763C23.4617 25.8542 23.4617 25.8542 23.2737 25.7085C23.0868 25.4552 23.067 25.3122 23.0934 24.995C23.254 24.6664 23.5239 24.4338 23.7851 24.1822C23.9141 24.0519 24.0336 23.9211 24.1529 23.7823C24.4433 23.4468 24.7613 23.14 25.0776 22.8291C25.3348 22.5745 25.5793 22.315 25.815 22.0405C25.9438 21.8957 26.082 21.7635 26.2227 21.6304C26.7301 21.1487 27.0496 20.6982 27.0982 19.9813C27.0865 19.3618 26.8241 18.8976 26.3885 18.4738C25.8644 18.1325 25.3767 17.9941 24.7582 18.117C24.1571 18.2858 23.72 18.6961 23.2998 19.1415C23.1378 19.304 22.9668 19.4526 22.7934 19.6029C22.5869 19.7841 22.3877 19.9729 22.1881 20.1616C21.893 20.4395 21.5973 20.7166 21.2982 20.9902C21.2398 21.0437 21.1814 21.0972 21.1212 21.1523C21.0005 21.2621 20.8794 21.3714 20.7578 21.4802C20.0746 22.0934 19.5043 22.7269 19.0426 23.5219C19.0176 23.5601 18.9925 23.5982 18.9668 23.6375C18.8626 23.811 18.7904 23.9405 18.8094 24.1461C18.8498 24.2937 18.8992 24.4341 18.9544 24.5768C19.3793 25.7065 19.3775 26.9172 19.3739 28.1079C19.3741 28.2553 19.3742 28.4027 19.3745 28.5501C19.3747 28.8561 19.3743 29.162 19.3735 29.468C19.3724 29.8601 19.373 30.2521 19.3741 30.6441C19.3748 30.9472 19.3746 31.2503 19.3741 31.5533C19.374 31.698 19.3741 31.8427 19.3746 31.9873C19.375 32.1885 19.3743 32.3897 19.3733 32.5908C19.3739 32.68 19.3739 32.68 19.3744 32.7709C19.3709 33.1429 19.3192 33.3546 19.0656 33.6375C18.8363 33.7521 18.6183 33.7502 18.3675 33.7103C18.1672 33.5996 18.0856 33.5207 17.9923 33.3127C17.9183 33.0191 17.9204 32.741 17.9212 32.4393C17.9209 32.3738 17.9205 32.3083 17.9202 32.2408C17.9196 32.0987 17.9192 31.9567 17.9191 31.8146C17.9189 31.589 17.9179 31.3634 17.9166 31.1377C17.9132 30.4962 17.9113 29.8548 17.9098 29.2133C17.9088 28.8205 17.907 28.4277 17.9046 28.0348C17.9039 27.8859 17.9035 27.737 17.9035 27.5881C17.9035 26.5668 17.8692 25.6092 17.4929 24.6459C17.4743 24.5971 17.4557 24.5483 17.4365 24.4981C16.9205 23.1789 16.0245 22.117 14.9585 21.2002C14.7536 21.0191 14.5545 20.832 14.355 20.6449C14.0518 20.3607 13.7465 20.0798 13.4363 19.8032C13.2668 19.6494 13.1003 19.4928 12.9339 19.3358C12.1865 18.5744 12.1865 18.5744 11.2478 18.1209C11.2058 18.1108 11.1638 18.1008 11.1205 18.0904C10.6241 18.004 10.1035 18.1195 9.69046 18.4086C9.18943 18.8325 8.96194 19.3061 8.88874 19.9545C8.93114 20.7085 9.32126 21.1785 9.83623 21.6807C9.93341 21.7778 10.0306 21.875 10.1277 21.9722C10.188 22.0306 10.188 22.0306 10.2495 22.0902C10.366 22.2099 10.4745 22.3318 10.5833 22.4584C10.8416 22.756 11.1206 23.0309 11.4013 23.3071C11.7537 23.654 12.0931 24.0049 12.414 24.3812C12.4581 24.4311 12.5023 24.4809 12.5478 24.5323C12.5821 24.571 12.6164 24.6098 12.6518 24.6497C12.7048 24.7093 12.7048 24.7093 12.7588 24.7701C12.9029 24.9436 12.9129 25.0432 12.8935 25.2635C12.8689 25.4648 12.8523 25.5362 12.7247 25.7008C12.505 25.8606 12.3408 25.8864 12.0723 25.883C11.7893 25.8285 11.625 25.6264 11.432 25.4246C11.3908 25.3848 11.3497 25.345 11.3073 25.304C11.1102 25.1126 10.9247 24.9153 10.7456 24.707C10.4967 24.421 10.2292 24.1559 9.95898 23.8902C9.65248 23.5888 9.3563 23.2851 9.07623 22.9589C8.9568 22.824 8.82967 22.7001 8.6991 22.5761C8.04288 21.9513 7.53067 21.1746 7.49612 20.2419C7.49573 20.1594 7.49568 20.0769 7.49589 19.9944C7.49569 19.9259 7.49569 19.9259 7.49549 19.856C7.49513 19.7034 7.49519 19.5507 7.49524 19.398C7.49505 19.2884 7.49484 19.1788 7.49459 19.0692C7.49411 18.8332 7.49379 18.5972 7.49359 18.3613C7.49323 17.9877 7.49222 17.6142 7.49106 17.2407C7.49067 17.1127 7.49028 16.9847 7.48989 16.8567C7.4897 16.7926 7.4895 16.7285 7.4893 16.6625C7.48672 15.793 7.4847 14.9236 7.48394 14.0542C7.48343 13.4675 7.48204 12.8808 7.47969 12.2941C7.47847 11.9839 7.47771 11.6737 7.47802 11.3634C7.4783 11.0713 7.47745 10.7793 7.47575 10.4872C7.47532 10.3804 7.47531 10.2736 7.47576 10.1668C7.47872 9.37805 7.41331 8.64508 6.82881 8.05522C6.32244 7.65823 5.80535 7.56662 5.17166 7.62559C4.6726 7.74248 4.25921 8.01751 3.97051 8.44266C3.79711 8.74388 3.69119 9.0006 3.69057 9.35099C3.69034 9.40104 3.6901 9.45109 3.68986 9.50265C3.68991 9.55731 3.68996 9.61196 3.69002 9.66827C3.68984 9.72659 3.68965 9.78492 3.68947 9.84502C3.68893 10.041 3.68884 10.237 3.68875 10.433C3.68846 10.5733 3.68816 10.7136 3.68783 10.854C3.68702 11.2359 3.68662 11.6177 3.68635 11.9996C3.68617 12.2385 3.68592 12.4773 3.68565 12.7162C3.6849 13.3785 3.68427 14.0409 3.68406 14.7032C3.68404 14.7456 3.68403 14.788 3.68402 14.8317C3.684 14.8742 3.68399 14.9167 3.68398 14.9605C3.68395 15.0466 3.68392 15.1327 3.68389 15.2188C3.68388 15.2615 3.68387 15.3042 3.68385 15.3482C3.68361 16.0382 3.68254 16.7282 3.68111 17.4182C3.67965 18.128 3.6789 18.8378 3.67882 19.5476C3.67875 19.9456 3.6784 20.3435 3.67729 20.7415C3.67628 21.1166 3.67615 21.4917 3.67669 21.8668C3.67674 22.0037 3.67647 22.1406 3.67586 22.2775C3.66529 24.7953 4.45491 26.9541 6.23368 28.7625C6.42975 28.9601 6.62694 29.1566 6.8244 29.3529C6.95586 29.4835 7.08711 29.6144 7.21832 29.7453C7.49621 30.0225 7.77433 30.2994 8.05249 30.5763C8.37653 30.8989 8.70047 31.2216 9.02416 31.5446C9.15344 31.6735 9.2829 31.8022 9.41237 31.9308C9.49125 32.0095 9.57011 32.0882 9.64897 32.1668C9.68497 32.2025 9.72096 32.2382 9.75805 32.2749C10.1608 32.6777 10.1608 32.6777 10.1661 33.0275C10.1621 33.2531 10.1493 33.3319 10.028 33.5301C9.8184 33.7212 9.65586 33.7437 9.3783 33.7382C9.19201 33.7049 9.1224 33.6481 8.98526 33.5199C8.94291 33.4807 8.90057 33.4415 8.85694 33.4012C8.81553 33.3614 8.77413 33.3217 8.73147 33.2807C8.69533 33.2464 8.65919 33.2121 8.62196 33.1767C8.51352 33.0724 8.40643 32.9668 8.29963 32.8607C8.25954 32.8211 8.21944 32.7815 8.17813 32.7407C8.04696 32.6111 7.91603 32.4812 7.78517 32.3512C7.7399 32.3063 7.69462 32.2613 7.64797 32.215C7.40808 31.9767 7.16841 31.7383 6.92889 31.4996C6.73272 31.3043 6.53612 31.1094 6.33911 30.9149C6.09906 30.6779 5.85982 30.4401 5.62108 30.2018C5.53104 30.1122 5.44075 30.0228 5.35017 29.9337C3.85603 28.4628 2.81512 26.6984 2.40974 24.6267C2.39432 24.5534 2.39432 24.5534 2.37858 24.4787C2.25073 23.7818 2.26881 23.0822 2.26916 22.3762C2.26879 22.2298 2.26837 22.0835 2.26791 21.9371C2.26683 21.5414 2.26654 21.1458 2.26646 20.7502C2.2664 20.5026 2.26612 20.2551 2.26579 20.0076C2.26471 19.1876 2.26414 18.3677 2.26423 17.5477C2.26424 17.5036 2.26424 17.4595 2.26425 17.4141C2.26425 17.37 2.26426 17.3259 2.26426 17.2804C2.26431 16.565 2.26313 15.8496 2.26141 15.1342C2.25964 14.3977 2.25879 13.6612 2.2589 12.9247C2.25894 12.512 2.25859 12.0992 2.25728 11.6865C2.25609 11.2984 2.25609 10.9103 2.25698 10.5222C2.25711 10.3802 2.25682 10.2382 2.25607 10.0962C2.25036 8.92993 2.35725 8.00175 3.19996 7.1154C4.31092 6.07268 5.94386 5.88836 7.26995 6.62823Z" fill="#2AB7CA" stroke="#2AB7CA" stroke-width="0.45"/>
<path id="Vector_2" d="M18.8285 2.40419C19.5367 2.85486 19.7552 3.48236 20.01 4.24164C20.044 4.3399 20.0781 4.43811 20.1124 4.53629C20.1778 4.72423 20.2424 4.91241 20.3064 5.10084C20.3983 5.37022 20.4971 5.63683 20.5989 5.90265C20.6391 6.02921 20.6391 6.02921 20.6391 6.21334C20.6957 6.21252 20.6957 6.21252 20.7534 6.21169C21.1487 6.20622 21.544 6.20254 21.9394 6.19985C22.0866 6.19862 22.2338 6.19695 22.381 6.19482C22.5935 6.19181 22.806 6.19044 23.0186 6.18936C23.0836 6.1881 23.1486 6.18683 23.2155 6.18552C23.7315 6.18537 24.1723 6.29561 24.617 6.56241C25.024 6.9927 25.2139 7.39555 25.2615 7.98557C25.2463 8.46776 25.086 8.93182 24.7513 9.28214C24.5673 9.44656 24.3756 9.59963 24.1813 9.7516C23.9363 9.9448 23.6956 10.1434 23.4545 10.3414C23.2705 10.4919 23.0868 10.6401 22.8927 10.7775C22.8364 10.8182 22.7801 10.859 22.722 10.901C22.6732 10.9343 22.6244 10.9677 22.5741 11.0021C22.4594 11.1227 22.4594 11.1227 22.494 11.3103C22.5415 11.5893 22.6303 11.8535 22.7201 12.1213C22.7376 12.1744 22.7551 12.2276 22.7731 12.2824C22.8286 12.4511 22.8846 12.6197 22.9407 12.7883C22.9967 12.9573 23.0526 13.1264 23.1083 13.2955C23.1429 13.4004 23.1776 13.5053 23.2126 13.6101C23.4162 14.2265 23.4731 14.7438 23.2169 15.3584C22.9437 15.8336 22.5785 16.1323 22.0507 16.279C21.8484 16.2996 21.8484 16.2996 21.6364 16.302C21.5671 16.3038 21.4978 16.3055 21.4264 16.3073C20.9121 16.2454 20.4929 16.0001 20.0752 15.7075C19.9801 15.6429 19.885 15.5784 19.7899 15.514C19.623 15.3999 19.4563 15.2855 19.2897 15.1709C19.0996 15.0405 18.9085 14.9117 18.7173 14.783C18.6568 14.7409 18.5964 14.6989 18.5342 14.6556C18.4771 14.6174 18.42 14.5792 18.3612 14.5399C18.3107 14.5054 18.2602 14.4708 18.2082 14.4353C18.0607 14.359 18.0607 14.359 17.8992 14.4207C17.7221 14.5166 17.5668 14.6279 17.4053 14.7485C17.0056 15.04 16.597 15.3179 16.1845 15.5908C16.1142 15.6375 16.0441 15.6843 15.9741 15.7314C15.3389 16.1584 14.818 16.4333 14.045 16.3181C13.5472 16.2038 13.158 15.891 12.8762 15.4672C12.5334 14.8063 12.6486 14.2138 12.863 13.5322C12.8913 13.444 12.9196 13.3559 12.9479 13.2678C12.9763 13.1772 13.0046 13.0866 13.0329 12.996C13.088 12.8194 13.1434 12.6429 13.1992 12.4665C13.292 12.1721 13.3798 11.8764 13.4658 11.5799C13.478 11.538 13.4903 11.4961 13.5029 11.453C13.529 11.3636 13.5549 11.2742 13.5809 11.1848C13.0421 10.719 12.4985 10.2628 11.9374 9.82397C11.3221 9.33443 10.848 8.91988 10.7408 8.1124C10.7166 7.65056 10.8663 7.16603 11.1517 6.8024C11.5507 6.39852 12.0049 6.20978 12.5667 6.1994C12.6969 6.19942 12.8271 6.20011 12.9573 6.20135C13.0606 6.20161 13.0606 6.20161 13.166 6.20188C13.3848 6.20256 13.6037 6.2041 13.8225 6.20567C13.9714 6.20628 14.1202 6.20684 14.2691 6.20734C14.633 6.20869 14.9969 6.21075 15.3608 6.21334C15.3668 6.16431 15.3729 6.11529 15.3792 6.06478C15.4328 5.7903 15.5229 5.53817 15.6187 5.27592C15.6383 5.22175 15.658 5.16758 15.6782 5.11177C15.7197 4.9975 15.7614 4.88329 15.8032 4.76915C15.8667 4.59577 15.9291 4.42208 15.9915 4.24835C16.0322 4.13692 16.0728 4.02552 16.1136 3.91414C16.1319 3.86278 16.1503 3.81143 16.1692 3.75852C16.3215 3.34733 16.5115 2.91989 16.8568 2.63435C16.8889 2.60674 16.921 2.57913 16.9541 2.55068C17.4981 2.1974 18.232 2.13693 18.8285 2.40419ZM17.6317 3.81968C17.5443 3.96871 17.5443 3.96871 17.489 4.14559C17.4537 4.24545 17.4537 4.24545 17.4176 4.34734C17.3812 4.45523 17.3812 4.45523 17.344 4.5653C17.3179 4.63924 17.2918 4.71317 17.2649 4.78935C17.1816 5.02584 17.0996 5.26277 17.0179 5.49984C16.9362 5.73647 16.8542 5.97296 16.7709 6.20902C16.7191 6.35593 16.6682 6.50313 16.6182 6.65063C16.3754 7.34058 16.3754 7.34058 16.0973 7.50223C15.8257 7.54496 15.5582 7.54355 15.2838 7.54131C15.1626 7.54229 15.0413 7.54326 14.9201 7.54427C14.7507 7.5453 14.5813 7.54495 14.4119 7.5446C14.1151 7.5442 13.8184 7.5456 13.5217 7.54759C13.3639 7.5485 13.206 7.54874 13.0481 7.54821C12.9766 7.54844 12.9052 7.54867 12.8315 7.54891C12.7372 7.54875 12.7372 7.54875 12.641 7.54858C12.4718 7.56399 12.3721 7.59399 12.2306 7.68636C12.1425 7.86256 12.1475 7.98207 12.1692 8.17737C12.2856 8.33198 12.2856 8.33198 12.4531 8.46507C12.4831 8.49098 12.5132 8.5169 12.5442 8.5436C12.8145 8.77369 13.0948 8.99196 13.3753 9.20936C13.7609 9.50831 14.1317 9.82335 14.5015 10.1414C14.5532 10.1855 14.605 10.2296 14.6583 10.275C14.7028 10.3132 14.7472 10.3514 14.793 10.3908C14.8307 10.4231 14.8683 10.4555 14.9071 10.4888C15.0492 10.6257 15.0545 10.7008 15.0711 10.9021C15.0661 11.2542 14.9492 11.5711 14.8391 11.9024C14.8173 11.9702 14.7955 12.0379 14.773 12.1077C14.7036 12.3233 14.6334 12.5385 14.5629 12.7537C14.4924 12.9692 14.4222 13.1847 14.3527 13.4004C14.3096 13.5344 14.2659 13.6681 14.2216 13.8017C14.1168 14.1271 14.0377 14.4021 14.0719 14.7446C14.132 14.8713 14.132 14.8713 14.256 14.9288C14.6568 15.0018 14.9231 14.7626 15.238 14.548C15.2966 14.5091 15.3551 14.4702 15.4154 14.4301C15.6023 14.3056 15.7884 14.1799 15.9745 14.0541C16.0998 13.9704 16.2251 13.8867 16.3504 13.8031C16.5809 13.6493 16.8111 13.495 17.0409 13.3401C17.0903 13.307 17.1396 13.2738 17.1905 13.2396C17.2728 13.184 17.3549 13.1278 17.4364 13.071C17.6764 12.9048 17.8888 12.811 18.184 12.842C18.6286 13.0261 19.0266 13.3369 19.4234 13.6058C19.9537 13.9644 20.4857 14.3215 21.0265 14.6641C21.0697 14.6925 21.1128 14.7209 21.1573 14.7502C21.3503 14.8703 21.4746 14.9291 21.7043 14.9261C21.8853 14.8788 21.8853 14.8788 21.9894 14.6832C21.9729 14.2395 21.8505 13.8553 21.705 13.4385C21.6602 13.3057 21.6153 13.173 21.5705 13.0402C21.4999 12.8332 21.429 12.6264 21.3575 12.4197C21.2883 12.2187 21.2204 12.0173 21.1526 11.8158C21.131 11.7546 21.1094 11.6934 21.0872 11.6304C20.9659 11.2667 20.8957 10.9471 21.0073 10.5711C21.1394 10.4001 21.1394 10.4001 21.3104 10.2603C21.403 10.183 21.403 10.183 21.4974 10.104C21.5585 10.0556 21.6195 10.0072 21.6825 9.95727C21.7309 9.91771 21.7793 9.87815 21.8292 9.8374C21.9257 9.75929 22.0227 9.68188 22.1203 9.60508C22.472 9.3276 22.8195 9.04487 23.1656 8.76041C23.2644 8.67971 23.3641 8.60022 23.4641 8.52093C23.5141 8.47971 23.5642 8.43849 23.6158 8.39602C23.6582 8.36192 23.7006 8.32782 23.7443 8.29269C23.8671 8.12861 23.8517 8.00858 23.8306 7.80911C23.7358 7.68411 23.6636 7.63353 23.5238 7.56361C23.41 7.55782 23.2961 7.55593 23.1823 7.55588C23.075 7.55553 23.075 7.55553 22.9656 7.55517C22.888 7.55511 22.8104 7.55504 22.7304 7.55498C22.609 7.55414 22.4876 7.5533 22.3661 7.55236C22.0661 7.55002 21.7661 7.5481 21.4661 7.54823C21.298 7.54827 21.1299 7.54751 20.9617 7.54584C20.8033 7.54428 20.6448 7.54389 20.4863 7.54478C19.9561 7.53737 19.9561 7.53737 19.7099 7.37573C19.5772 7.16609 19.4851 6.95689 19.4063 6.72305C19.3902 6.67753 19.374 6.63202 19.3574 6.58513C19.3233 6.48831 19.2895 6.39134 19.2561 6.29425C19.2041 6.14343 19.1511 5.99303 19.0977 5.8427C18.9498 5.42499 18.8047 5.00634 18.6612 4.58712C18.6422 4.53297 18.6232 4.47882 18.6037 4.42304C18.5706 4.32849 18.5384 4.23362 18.5074 4.13839C18.4366 3.93697 18.3823 3.83053 18.2109 3.69908C17.9561 3.59088 17.8504 3.66069 17.6317 3.81968Z" fill="#2AB7CA" stroke="#2AB7CA" stroke-width="0.45"/>
</g>
</g>
</g>
</g>
</g>
</g>
</g>
</g>
</g>
</g>
<defs>
<linearGradient id="paint0_linear_729_1057" x1="720.5" y1="0" x2="720.5" y2="1075.01" gradientUnits="userSpaceOnUse">
<stop offset="0.08" stop-opacity="0.7"/>
<stop offset="0.7"/>
</linearGradient>
<clipPath id="clip0_729_1057">
<rect width="36" height="36" fill="white"/>
</clipPath>
</defs>
</svg>
