<svg width="20" height="20" viewBox="0 0 20 20" fill="none" xmlns="http://www.w3.org/2000/svg">
<path opacity="0.997" fill-rule="evenodd" clip-rule="evenodd" d="M8.90766 17.9849C10.9447 17.8544 12.6038 17.0007 13.8851 15.4238C15.0457 13.8659 15.4776 12.1228 15.1809 10.1948C14.7705 8.1351 13.6602 6.5826 11.8499 5.53754C10.2039 4.67448 8.48633 4.49662 6.69717 5.00397C4.64447 5.68969 3.21908 7.03886 2.421 9.05146C2.20302 9.64814 2.07344 10.263 2.03226 10.8961C2.01706 10.599 2.01198 10.2991 2.01701 9.99664C2.05593 7.45701 3.04685 5.37603 4.98975 3.75389C6.81454 2.3397 8.87768 1.78071 11.1791 2.07697C13.5239 2.46775 15.3609 3.63906 16.6901 5.59089C17.9623 7.60412 18.3079 9.76888 17.7268 12.0852C17.1187 14.1917 15.8762 15.8051 13.9994 16.9254C12.8808 17.5658 11.6764 17.9165 10.3864 17.9773C9.89355 17.9849 9.4006 17.9875 8.90766 17.9849Z" fill="#2DCBC5"/>
<path fill-rule="evenodd" clip-rule="evenodd" d="M8.90779 17.9844C6.6109 17.987 4.31401 17.9844 2.01714 17.9767C2.00191 15.7699 1.99683 13.5618 2.00189 11.3529C2.01705 11.203 2.02722 11.0506 2.03238 10.8955C2.07356 10.2624 2.20314 9.6476 2.42113 9.05091C3.21921 7.03831 4.6446 5.68915 6.69729 5.00342C8.48645 4.49607 10.2041 4.67393 11.85 5.53699C13.6604 6.58205 14.7706 8.13455 15.181 10.1943C15.4777 12.1223 15.0458 13.8654 13.8852 15.4232C12.6039 17.0002 10.9448 17.8539 8.90779 17.9844Z" fill="#FDD531"/>
</svg>
