<svg width="104" height="102" viewBox="0 0 104 102" fill="none" xmlns="http://www.w3.org/2000/svg">
<g clip-path="url(#clip0_113_769)">
<g clip-path="url(#clip1_113_769)">
<path fill-rule="evenodd" clip-rule="evenodd" d="M3.70837 65.3552L45.4829 23.5807L22.0095 80.5651C23.3592 81.3062 24.7395 81.999 26.1476 82.641L49.7067 25.4487L49.7067 88.1935C50.4726 88.2213 51.2421 88.2354 52.0149 88.2354C52.7878 88.2354 53.5574 88.2213 54.3236 88.1935L54.3236 25.4488L77.8824 82.6408C79.2905 81.9989 80.6708 81.3062 82.0205 80.565L58.5472 23.5807L100.322 65.3551C101.306 64.1546 102.246 62.9167 103.14 61.6439L53.6474 12.1514L52.0151 10.5191L50.3827 12.1514L0.890228 61.644C1.78406 62.9168 2.72429 64.1546 3.70837 65.3552Z" fill="#05070F"/>
<path d="M52.0153 40.6939C42.924 40.6939 35.554 48.0639 35.554 57.1552C35.554 66.2465 42.924 73.6165 52.0153 73.6165C61.1066 73.6165 68.4766 66.2465 68.4766 57.1552C68.4766 48.0639 61.1066 40.6939 52.0153 40.6939Z" stroke="#05070F" stroke-width="4.61689"/>
</g>
</g>
<defs>
<clipPath id="clip0_113_769">
<rect width="103.87" height="101.56" fill="white" transform="matrix(-1 0 0 -1 103.87 101.562)"/>
</clipPath>
<clipPath id="clip1_113_769">
<rect width="103.88" height="101.572" fill="white" transform="matrix(-1 0 0 -1 103.87 101.567)"/>
</clipPath>
</defs>
</svg>
