<svg width="165" height="196" viewBox="0 0 165 196" fill="none" xmlns="http://www.w3.org/2000/svg">
<g clip-path="url(#clip0_113_616)">
<g clip-path="url(#clip1_113_616)">
<path d="M0.610352 31.4902H164.673V141.072H0.610352V31.4902Z" fill="white"/>
<path fill-rule="evenodd" clip-rule="evenodd" d="M164.361 141.072L82.4857 194.307V141.072H164.361ZM82.4857 194.307L0.610352 141.072H82.4857V194.307Z" fill="white"/>
<path fill-rule="evenodd" clip-rule="evenodd" d="M0.610352 31.4533V31.4887H164.673C146.941 31.4887 132.415 17.7632 131.141 0.357422H32.5855C31.3484 17.2513 17.6285 30.6781 0.610352 31.4533Z" fill="white"/>
<path d="M5.13574 35.1211H160.148V138.658H5.13574V35.1211Z" fill="#43B9B5"/>
<path fill-rule="evenodd" clip-rule="evenodd" d="M159.853 138.658L82.4944 188.957V138.658H159.853ZM82.4944 188.957L5.13574 138.658H82.4944V188.957Z" fill="#43B9B5"/>
<path fill-rule="evenodd" clip-rule="evenodd" d="M5.13574 35.0874V35.121H160.148C143.395 35.121 129.669 22.1525 128.465 5.70703H35.3461C34.1774 21.6686 21.2148 34.3547 5.13574 35.0874Z" fill="#43B9B5"/>
<path d="M11.498 40.2266H153.788V135.266H11.498V40.2266Z" fill="#258B87"/>
<path fill-rule="evenodd" clip-rule="evenodd" d="M153.519 135.266L82.5081 181.437V135.266H153.519ZM82.5081 181.437L11.498 135.266H82.5081V181.437Z" fill="#258B87"/>
<path fill-rule="evenodd" clip-rule="evenodd" d="M11.499 40.1956V40.2265H153.789L153.787 40.2263C138.409 40.2263 125.811 28.3224 124.706 13.2266H39.2302C38.1573 27.8782 26.2584 39.523 11.499 40.1956Z" fill="#258B87"/>
<path fill-rule="evenodd" clip-rule="evenodd" d="M20.1245 47.1217V47.1486H20.1221V130.669H145.165V47.1491H145.168L145.167 47.1486C131.653 47.1486 120.582 36.6877 119.61 23.4218H44.4944C43.5515 36.2974 33.095 46.5307 20.1245 47.1217ZM144.927 130.669L82.5248 171.243L20.1221 130.669H82.5248H144.927Z" fill="#2DCBC5"/>
</g>
</g>
<defs>
<clipPath id="clip0_113_616">
<rect width="164.064" height="194.903" fill="white" transform="translate(0.610352 0.361328)"/>
</clipPath>
<clipPath id="clip1_113_616">
<rect width="164.064" height="194.903" fill="white" transform="translate(0.610352 0.361328)"/>
</clipPath>
</defs>
</svg>
