<svg width="501" height="168" viewBox="0 0 501 168" fill="none" xmlns="http://www.w3.org/2000/svg">
<mask id="mask0_113_640" style="mask-type:luminance" maskUnits="userSpaceOnUse" x="0" y="0" width="167" height="168">
<path d="M166.99 0.544922H0.458984V167.076H166.99V0.544922Z" fill="white"/>
</mask>
<g mask="url(#mask0_113_640)">
<path d="M166.99 0.544922H0.458984V167.076H166.99V0.544922Z" fill="#2DCBC5"/>
<mask id="mask1_113_640" style="mask-type:luminance" maskUnits="userSpaceOnUse" x="9" y="9" width="67" height="67">
<path d="M75.0907 9.17969H9.71191V75.7921H75.0907V9.17969Z" fill="white"/>
</mask>
<g mask="url(#mask1_113_640)">
<path d="M17.9688 12.9883H71.2801V66.2997" stroke="white" stroke-width="7.61591" stroke-linecap="square" stroke-linejoin="round"/>
<path d="M15.8779 68.3912L71.3883 12.8809" stroke="white" stroke-width="7.61591" stroke-linecap="square" stroke-linejoin="round"/>
</g>
<path d="M125.357 83.8104C148.351 83.8104 166.99 65.1708 166.99 42.1777C166.99 19.1845 148.351 0.544922 125.357 0.544922C102.364 0.544922 83.7246 19.1845 83.7246 42.1777C83.7246 65.1708 102.364 83.8104 125.357 83.8104Z" fill="#258B87"/>
<path d="M42.0917 167.076C65.0848 167.076 83.7245 148.437 83.7245 125.443C83.7245 102.45 65.0848 83.8105 42.0917 83.8105C19.0986 83.8105 0.458984 102.45 0.458984 125.443C0.458984 148.437 19.0986 167.076 42.0917 167.076Z" fill="#258B87"/>
<path d="M125.357 167.076C148.351 167.076 166.99 148.437 166.99 125.443C166.99 102.45 148.351 83.8105 125.357 83.8105C102.364 83.8105 83.7246 102.45 83.7246 125.443C83.7246 148.437 102.364 167.076 125.357 167.076Z" fill="#258B87"/>
</g>
<mask id="mask2_113_640" style="mask-type:luminance" maskUnits="userSpaceOnUse" x="166" y="0" width="168" height="168">
<path d="M333.522 0.545166H166.991V167.076H333.522V0.545166Z" fill="white"/>
</mask>
<g mask="url(#mask2_113_640)">
<path d="M333.522 0.545166H166.991V167.076H333.522V0.545166Z" fill="#2DCBC5"/>
<path d="M208.624 83.8107C231.618 83.8107 250.257 65.171 250.257 42.1779C250.257 19.1848 231.618 0.545166 208.624 0.545166C185.63 0.545166 166.991 19.1848 166.991 42.1779C166.991 65.171 185.63 83.8107 208.624 83.8107Z" fill="#258B87"/>
<path d="M291.89 83.8107C314.883 83.8107 333.522 65.171 333.522 42.1779C333.522 19.1848 314.883 0.545166 291.89 0.545166C268.896 0.545166 250.257 19.1848 250.257 42.1779C250.257 65.171 268.896 83.8107 291.89 83.8107Z" fill="#258B87"/>
<mask id="mask3_113_640" style="mask-type:luminance" maskUnits="userSpaceOnUse" x="175" y="91" width="67" height="68">
<path d="M241.006 91.8284H175.627V158.441H241.006V91.8284Z" fill="white"/>
</mask>
<g mask="url(#mask3_113_640)">
<path d="M183.885 95.637H237.197V148.948" stroke="white" stroke-width="7.61591" stroke-linecap="square" stroke-linejoin="round"/>
<path d="M181.794 151.04L237.304 95.5295" stroke="white" stroke-width="7.61591" stroke-linecap="square" stroke-linejoin="round"/>
</g>
<path d="M291.89 167.076C314.883 167.076 333.522 148.437 333.522 125.444C333.522 102.45 314.883 83.8108 291.89 83.8108C268.896 83.8108 250.257 102.45 250.257 125.444C250.257 148.437 268.896 167.076 291.89 167.076Z" fill="#258B87"/>
</g>
<mask id="mask4_113_640" style="mask-type:luminance" maskUnits="userSpaceOnUse" x="333" y="0" width="168" height="168">
<path d="M500.051 0.545166H333.52V167.076H500.051V0.545166Z" fill="white"/>
</mask>
<g mask="url(#mask4_113_640)">
<path d="M500.052 0.545166H333.521V167.076H500.052V0.545166Z" fill="#2DCBC5"/>
<path d="M458.419 83.8107C481.412 83.8107 500.052 65.171 500.052 42.1779C500.052 19.1848 481.412 0.545166 458.419 0.545166C435.425 0.545166 416.786 19.1848 416.786 42.1779C416.786 65.171 435.425 83.8107 458.419 83.8107Z" fill="#258B87"/>
<path d="M375.154 167.076C398.148 167.076 416.787 148.437 416.787 125.444C416.787 102.45 398.148 83.8108 375.154 83.8108C352.161 83.8108 333.521 102.45 333.521 125.444C333.521 148.437 352.161 167.076 375.154 167.076Z" fill="#258B87"/>
<path d="M458.419 167.076C481.412 167.076 500.052 148.437 500.052 125.444C500.052 102.45 481.412 83.8108 458.419 83.8108C435.425 83.8108 416.786 102.45 416.786 125.444C416.786 148.437 435.425 167.076 458.419 167.076Z" fill="#258B87"/>
<mask id="mask5_113_640" style="mask-type:luminance" maskUnits="userSpaceOnUse" x="342" y="9" width="66" height="67">
<path d="M407.536 9.17993H342.157V75.7923H407.536V9.17993Z" fill="white"/>
</mask>
<g mask="url(#mask5_113_640)">
<path d="M350.416 12.9885H403.728V66.2999" stroke="white" stroke-width="7.61591" stroke-linecap="square" stroke-linejoin="round"/>
<path d="M348.325 68.3914L403.836 12.8811" stroke="white" stroke-width="7.61591" stroke-linecap="square" stroke-linejoin="round"/>
</g>
</g>
</svg>
