<svg width="477" height="150" viewBox="0 0 477 150" fill="none" xmlns="http://www.w3.org/2000/svg">
<path fill-rule="evenodd" clip-rule="evenodd" d="M448.344 3.44519L520.051 75.1521H448.344V3.44519ZM520.051 75.1521L448.344 146.859V75.1521H520.051Z" fill="#43B9B5"/>
<path fill-rule="evenodd" clip-rule="evenodd" d="M358.712 3.44519L430.419 75.1521H358.712V3.44519ZM430.419 75.1521L358.712 146.859V75.1521H430.419Z" fill="#2DCBC5"/>
<path fill-rule="evenodd" clip-rule="evenodd" d="M269.079 3.44519L340.786 75.1521H269.079V3.44519ZM340.786 75.1521L269.079 146.859V75.1521H340.786Z" fill="#43B9B5"/>
<path fill-rule="evenodd" clip-rule="evenodd" d="M179.445 3.44519L251.152 75.1521H179.445V3.44519ZM251.152 75.1521L179.445 146.859V75.1521H251.152Z" fill="#2DCBC5"/>
<path fill-rule="evenodd" clip-rule="evenodd" d="M89.8125 3.44519L161.519 75.1521H89.8125V3.44519ZM161.519 75.1521L89.8125 146.859V75.1521H161.519Z" fill="#43B9B5"/>
<path fill-rule="evenodd" clip-rule="evenodd" d="M0.179688 3.44519L71.8866 75.1521H0.179688V3.44519ZM71.8866 75.1521L0.179688 146.859V75.1521H71.8866Z" fill="#2DCBC5"/>
</svg>
