<svg width="218" height="218" viewBox="0 0 218 218" fill="none" xmlns="http://www.w3.org/2000/svg">
<g clip-path="url(#clip0_113_1080)">
<path d="M59.1919 163.152C59.1933 163.152 59.1947 163.152 59.1961 163.151C60.2514 162.773 61.36 162.373 62.5226 161.952L62.531 161.949L62.5634 161.937L62.5651 161.936L82.0184 154.898L82.188 154.836C87.7903 152.809 92.2244 151.205 95.5251 149.484C98.9207 147.713 101.439 145.659 102.89 142.562C104.143 139.888 104.29 137.095 103.781 133.964L129.429 141.6H129.431L129.44 141.602L129.442 141.604L129.461 141.608L129.471 141.612C131.347 142.17 133.134 142.703 134.832 143.201C134.835 143.202 134.836 143.202 134.837 143.203L137.935 144.126C138.679 144.357 139.311 144.563 139.859 144.763C141.049 145.196 141.606 145.516 141.921 145.784C142.168 145.994 142.692 146.678 143.656 148.483C144.566 150.19 145.71 152.572 147.281 155.846C152.934 167.63 164.763 174.079 176.716 175.556L176.864 175.574C178.176 175.737 179.378 175.885 180.284 175.887C180.755 175.887 181.368 175.854 181.967 175.648C182.641 175.418 183.414 174.921 183.832 173.979C184.292 172.939 184.039 171.971 183.746 171.362C183.474 170.797 183.071 170.318 182.727 169.951C182.052 169.23 181.035 168.355 179.881 167.361L179.771 167.268C175.82 163.865 174.005 159.248 174.162 152.014C174.322 144.649 176.524 134.897 180.373 121.644C181.229 118.891 182.128 115.866 183.112 112.563L183.115 112.554L185.34 105.081L185.393 104.902C188.089 95.8455 190.182 88.8137 191.076 83.123C191.986 77.3263 191.714 72.5672 189.356 68.2092C186.998 63.8512 183.161 61.0216 177.811 58.6129C172.558 56.2484 165.526 54.155 156.469 51.4589L156.291 51.4058L125.116 42.1251L124.938 42.0721C115.882 39.3758 108.85 37.2825 103.159 36.3892C97.3622 35.4793 92.6031 35.7502 88.2451 38.1087C83.8872 40.4672 81.0575 44.3033 78.6489 49.6539C76.3747 54.7059 74.3513 61.4036 71.8014 69.9657L68.1582 71.1451C67.5453 68.4186 65.1094 66.3818 62.1979 66.3818C58.8239 66.3818 56.0888 69.1169 56.0888 72.4909C56.0888 74.8611 57.4386 76.916 59.4114 77.9289C59.2573 81.6052 60.5381 85.3335 61.6698 88.355C61.8866 88.9338 62.0989 89.4875 62.3031 90.0201C62.8318 91.3989 63.3064 92.6365 63.6647 93.8043C63.9224 94.6445 64.0753 95.3189 64.1471 95.8561C63.1659 96.2078 62.1406 96.5787 61.0697 96.9662L61.0664 96.9673L61.0612 96.9692L61.0591 96.97L61.0472 96.9743L61.046 96.9748L41.6041 104.009L41.4344 104.071C35.8321 106.097 31.3981 107.702 28.0974 109.423C24.7019 111.195 22.1837 113.248 20.7328 116.345C19.2819 119.44 19.3149 122.69 20.1264 126.433C20.9152 130.071 22.5196 134.505 24.5467 140.107L24.6081 140.277L26.2955 144.941L26.2991 144.951C27.0428 147.006 27.7262 148.895 28.3719 150.615C31.3015 158.886 33.0199 164.898 33.3816 169.441C33.7331 173.855 32.7871 176.564 30.6435 178.637L30.5533 178.725C29.8787 179.376 29.2347 179.998 28.8017 180.519C28.5798 180.785 28.2729 181.186 28.0701 181.678C27.8488 182.216 27.6547 183.125 28.1424 184.074C28.5812 184.927 29.3258 185.338 29.929 185.507C30.456 185.654 30.9605 185.646 31.2918 185.626C31.923 185.59 32.7288 185.442 33.5258 185.296L33.6516 185.273C41.3999 183.857 48.9711 179.18 52.2681 171.149C53.1482 169.004 53.7786 167.471 54.2845 166.374C54.5358 165.83 54.7336 165.444 54.8933 165.173C55.0296 164.942 55.1013 164.859 55.1055 164.853C55.19 164.775 55.4256 164.603 56.1118 164.307C56.4366 164.167 56.8147 164.019 57.2667 163.85L59.1919 163.152ZM30.9419 180.845H30.957C30.9468 180.846 30.9419 180.845 30.9419 180.845ZM63.5154 72.4909C63.5154 72.5452 63.5121 72.5987 63.5057 72.6513L61.4599 73.3135C61.3852 73.3377 61.3122 73.3654 61.2409 73.3965C61.0174 73.1604 60.8804 72.8416 60.8804 72.4909C60.8804 71.7632 61.4702 71.1734 62.1979 71.1734C62.9254 71.1734 63.5154 71.7632 63.5154 72.4909ZM50.2464 95.2962C55.012 95.2962 58.8752 91.4329 58.8752 86.6673C58.8752 81.9017 55.012 78.0384 50.2464 78.0384C45.4808 78.0384 41.6175 81.9017 41.6175 86.6673C41.6175 91.4329 45.4808 95.2962 50.2464 95.2962Z" fill="white"/>
<path d="M183.832 173.979C183.414 174.921 182.641 175.418 181.967 175.648C181.368 175.854 180.755 175.887 180.284 175.887C179.378 175.885 178.176 175.737 176.864 175.574L176.716 175.556C164.763 174.079 152.934 167.63 147.281 155.846C145.71 152.572 144.566 150.19 143.656 148.483C142.692 146.678 142.168 145.994 141.921 145.784C141.606 145.516 141.049 145.196 139.859 144.763C139.311 144.563 138.679 144.357 137.935 144.126L134.837 143.203C134.836 143.202 134.835 143.202 134.832 143.201C133.134 142.703 131.347 142.17 129.471 141.612L129.461 141.608L129.442 141.604L129.44 141.602L129.431 141.6H129.429L103.781 133.964C104.29 137.095 104.143 139.888 102.89 142.562C101.439 145.659 98.9207 147.713 95.5251 149.484C92.2244 151.205 87.7903 152.809 82.188 154.836L82.0184 154.898L62.5651 161.936L62.5634 161.937L62.531 161.949L62.5226 161.952C61.36 162.373 60.2514 162.773 59.1961 163.151C59.1947 163.152 59.1933 163.152 59.1919 163.152L57.2667 163.85C56.8147 164.019 56.4366 164.167 56.1118 164.307C55.4256 164.603 55.19 164.775 55.1055 164.853C55.1013 164.859 55.0296 164.942 54.8933 165.173C54.7336 165.444 54.5358 165.83 54.2845 166.374C53.7786 167.471 53.1482 169.004 52.2681 171.149C48.9711 179.18 41.3999 183.857 33.6516 185.273L33.5258 185.296C32.7288 185.442 31.923 185.59 31.2918 185.626C30.9605 185.646 30.456 185.654 29.929 185.507C29.3258 185.338 28.5812 184.927 28.1424 184.074C27.6547 183.125 27.8488 182.216 28.0701 181.678C28.2729 181.186 28.5798 180.785 28.8017 180.519C29.2347 179.998 29.8787 179.376 30.5533 178.725L30.6435 178.637C32.7871 176.564 33.7331 173.855 33.3816 169.441C33.0199 164.898 31.3015 158.886 28.3719 150.615C27.7262 148.895 27.0428 147.006 26.2991 144.951L26.2955 144.941L24.6081 140.277L24.5467 140.107C22.5196 134.505 20.9152 130.071 20.1264 126.433C19.3149 122.69 19.2819 119.44 20.7328 116.345C22.1837 113.248 24.7019 111.195 28.0974 109.423C31.3981 107.702 35.8321 106.097 41.4344 104.071L41.6041 104.009L61.046 96.9748L61.0472 96.9743L61.0591 96.97L61.0612 96.9692L61.0664 96.9673L61.0697 96.9662C62.1406 96.5787 63.1659 96.2078 64.1471 95.8561C64.0753 95.3189 63.9224 94.6445 63.6647 93.8043C63.3064 92.6365 62.8318 91.3989 62.3031 90.0201C62.0989 89.4875 61.8866 88.9338 61.6698 88.355C60.5381 85.3335 59.2573 81.6052 59.4114 77.9289C57.4386 76.916 56.0888 74.8611 56.0888 72.4909C56.0888 69.1169 58.8239 66.3818 62.1979 66.3818C65.1094 66.3818 67.5453 68.4186 68.1582 71.1451L71.8014 69.9657C74.3513 61.4036 76.3747 54.7059 78.6489 49.6539C81.0575 44.3033 83.8872 40.4672 88.2451 38.1087C92.6031 35.7502 97.3622 35.4793 103.159 36.3892C108.85 37.2825 115.882 39.3758 124.938 42.0721L125.116 42.1251L156.291 51.4058L156.469 51.4589C165.526 54.155 172.558 56.2484 177.811 58.6129C183.161 61.0216 186.998 63.8512 189.356 68.2092C191.714 72.5672 191.986 77.3263 191.076 83.123C190.182 88.8137 188.089 95.8455 185.393 104.902L185.34 105.081L183.115 112.554L183.112 112.563C182.128 115.866 181.229 118.891 180.373 121.644C176.524 134.897 174.322 144.649 174.162 152.014C174.005 159.248 175.82 163.865 179.771 167.268L179.881 167.361C181.035 168.355 182.052 169.23 182.727 169.951C183.071 170.318 183.474 170.797 183.746 171.362C184.039 171.971 184.292 172.939 183.832 173.979ZM183.832 173.979L181.667 173.02M30.9419 180.845H30.957C30.9468 180.846 30.9419 180.845 30.9419 180.845ZM63.5154 72.4909C63.5154 72.5452 63.5121 72.5987 63.5057 72.6513L61.4599 73.3135C61.3852 73.3377 61.3122 73.3654 61.2409 73.3965C61.0174 73.1604 60.8804 72.8416 60.8804 72.4909C60.8804 71.7632 61.4702 71.1734 62.1979 71.1734C62.9254 71.1734 63.5154 71.7632 63.5154 72.4909ZM50.2464 95.2961C55.012 95.2961 58.8752 91.4329 58.8752 86.6673C58.8752 81.9017 55.012 78.0384 50.2464 78.0384C45.4808 78.0384 41.6175 81.9017 41.6175 86.6673C41.6175 91.4329 45.4808 95.2961 50.2464 95.2961Z" stroke="#31F7C8" stroke-width="4.79161" stroke-linecap="round" stroke-linejoin="round"/>
<path d="M124.433 44.4221L155.609 53.7028C174.024 59.185 183.231 61.9263 187.25 69.3503C191.267 76.7744 188.526 85.9822 183.043 104.398L180.819 111.872C179.831 115.191 178.932 118.212 178.078 120.955C170.375 147.477 168.909 161.078 178.209 169.083C180.705 171.232 181.953 172.306 181.641 173.01C181.33 173.712 179.89 173.535 177.01 173.179C165.647 171.775 154.655 165.679 149.442 154.811C146.32 148.306 144.76 145.052 143.473 143.959C142.187 142.865 139.962 142.212 135.514 140.905C133.809 140.405 132.014 139.87 130.124 139.308L98.9492 130.026C80.5336 124.544 71.3258 121.803 67.308 114.379C63.2901 106.955 66.0312 97.7473 71.5135 79.3317L73.7385 71.8578C79.2207 53.4423 81.9618 44.2345 89.386 40.2167C96.8101 36.1988 106.018 38.9399 124.433 44.4221Z" fill="white"/>
<path d="M135.514 140.905C133.809 140.405 132.014 139.87 130.124 139.308L98.9492 130.026C80.5336 124.544 71.3258 121.803 67.308 114.379C63.2901 106.955 66.0312 97.7473 71.5135 79.3317L73.7385 71.8578C79.2207 53.4423 81.9618 44.2345 89.386 40.2167C96.8101 36.1988 106.018 38.9399 124.433 44.4221L155.609 53.7028C174.024 59.185 183.231 61.9263 187.25 69.3503C191.267 76.7744 188.526 85.9822 183.043 104.398L180.819 111.872C179.831 115.191 178.932 118.212 178.078 120.955C170.375 147.477 168.909 161.078 178.209 169.083C180.705 171.232 181.953 172.306 181.641 173.01C181.331 173.712 179.89 173.535 177.01 173.179C165.647 171.775 154.655 165.679 149.442 154.811C146.32 148.306 144.76 145.052 143.473 143.959C142.187 142.865 139.962 142.212 135.514 140.905ZM135.514 140.905L151.008 145.525" stroke="#040605" stroke-width="1.6458" stroke-linecap="round" stroke-linejoin="round"/>
<path d="M144.534 104.176C145.103 106.83 144.532 110.258 143.041 112.754" stroke="#040605" stroke-width="1.6458" stroke-linecap="round"/>
<path d="M131.618 80.9866C134.02 72.917 129.426 64.4278 121.356 62.0255C113.287 59.6232 104.797 64.2175 102.395 72.2871C99.9929 80.3567 104.587 88.8459 112.657 91.2482C120.726 93.6505 129.216 89.0562 131.618 80.9866Z" fill="white" stroke="#040605" stroke-width="1.6458" stroke-linecap="round" stroke-linejoin="round"/>
<mask id="mask0_113_1080" style="mask-type:luminance" maskUnits="userSpaceOnUse" x="100" y="60" width="34" height="33">
<path d="M131.618 80.9846C134.021 72.915 129.426 64.4258 121.357 62.0235C113.287 59.6212 104.798 64.2155 102.396 72.2851C99.9933 80.3548 104.588 88.8439 112.657 91.2462C120.727 93.6485 129.216 89.0543 131.618 80.9846Z" fill="white" stroke="#21242C" stroke-width="1.6458" stroke-linecap="round" stroke-linejoin="round"/>
</mask>
<g mask="url(#mask0_113_1080)">
<path d="M118.146 85.0152C120.029 78.6909 116.428 72.0378 110.104 70.1551C103.78 68.2724 97.1267 71.873 95.2439 78.1973C93.3612 84.5216 96.9618 91.1747 103.286 93.0574C109.61 94.9401 116.264 91.3395 118.146 85.0152Z" fill="#040605"/>
</g>
<path d="M153.435 87.4788C155.838 79.4092 151.243 70.92 143.174 68.5177C135.104 66.1154 126.615 70.7096 124.213 78.7793C121.81 86.8489 126.405 95.3381 134.474 97.7404C142.544 100.143 151.033 95.5484 153.435 87.4788Z" fill="white" stroke="#040605" stroke-width="1.6458" stroke-linecap="round" stroke-linejoin="round"/>
<mask id="mask1_113_1080" style="mask-type:luminance" maskUnits="userSpaceOnUse" x="122" y="67" width="33" height="33">
<path d="M153.435 87.4788C155.838 79.4092 151.243 70.92 143.174 68.5177C135.104 66.1154 126.615 70.7096 124.213 78.7793C121.81 86.8489 126.405 95.3381 134.474 97.7404C142.544 100.143 151.033 95.5484 153.435 87.4788Z" fill="white" stroke="#21242C" stroke-width="1.6458" stroke-linecap="round" stroke-linejoin="round"/>
</mask>
<g mask="url(#mask1_113_1080)">
<path d="M139.963 91.5094C141.846 85.1851 138.245 78.532 131.921 76.6492C125.597 74.7665 118.944 78.3671 117.061 84.6914C115.178 91.0157 118.779 97.6688 125.103 99.5516C131.427 101.434 138.08 97.8337 139.963 91.5094Z" fill="#040605"/>
</g>
<path d="M107.79 102.947C107.168 108.156 112.21 115.956 121.749 117.095C134.038 118.562 138.28 111.143 138.816 106.652C139.512 100.822 132.403 101.364 123.836 100.341C115.268 99.318 108.412 97.7391 107.79 102.947Z" fill="#040605" stroke="#040605" stroke-width="1.6458" stroke-linecap="round" stroke-linejoin="round"/>
<mask id="mask2_113_1080" style="mask-type:luminance" maskUnits="userSpaceOnUse" x="106" y="98" width="34" height="20">
<path d="M107.79 102.947C107.168 108.156 111.987 115.3 121.776 116.469C133.374 117.854 138.28 111.143 138.816 106.652C139.512 100.822 132.403 101.364 123.836 100.341C115.268 99.318 108.412 97.7391 107.79 102.947Z" fill="#040605" stroke="#040605" stroke-width="1.6458" stroke-linecap="round" stroke-linejoin="round"/>
</mask>
<g mask="url(#mask2_113_1080)">
<path d="M113.175 117.279C111.383 107.53 115.37 100.967 124.371 96.9727L132.455 97.938L144.47 100.326L143.947 111.895L134.137 119.782L113.175 117.279Z" fill="white" stroke="#040605" stroke-width="1.6458" stroke-linecap="round" stroke-linejoin="round"/>
</g>
<path d="M118.376 99.6508C120.076 99.8534 121.913 100.111 123.836 100.341C132.403 101.364 139.512 100.821 138.816 106.652C138.28 111.143 132.607 119.128 121.85 117.283C113.283 116.26 107.168 108.155 107.79 102.947C108.272 98.9079 112.504 98.9509 118.376 99.6508ZM118.376 99.6508C112.804 99.2467 109.681 98.9256 104.097 98.0742" stroke="#040605" stroke-width="1.6458" stroke-linecap="round" stroke-linejoin="round"/>
<path d="M61.8745 99.222L42.4196 106.261C30.9272 110.419 25.181 112.498 22.9025 117.36C20.624 122.222 22.703 127.969 26.8613 139.461L28.5487 144.125C29.2983 146.196 29.9801 148.082 30.6231 149.792C36.4892 166.351 37.9206 174.933 32.3091 180.359C30.8031 181.815 30.0501 182.543 30.2736 182.977C30.4972 183.413 31.4052 183.247 33.2212 182.915C40.3846 181.606 47.1406 177.331 50.052 170.238C51.7946 165.993 52.6659 163.87 53.4427 163.128C54.2195 162.386 55.6081 161.889 58.3852 160.895C59.4492 160.515 60.5686 160.11 61.7486 159.683L81.2036 152.645C92.6959 148.487 98.4422 146.407 100.721 141.545C102.999 136.684 100.92 130.937 96.7619 119.444L95.0743 114.78C90.9162 103.288 88.8372 97.5418 83.9752 95.2633C79.1132 92.9849 73.367 95.0639 61.8745 99.222Z" fill="white"/>
<path d="M58.3852 160.895C59.4492 160.515 60.5686 160.11 61.7486 159.683L81.2036 152.645C92.6959 148.487 98.4422 146.407 100.721 141.545C102.999 136.684 100.92 130.937 96.7619 119.444L95.0743 114.78C90.9162 103.288 88.8372 97.5418 83.9752 95.2633C79.1132 92.9849 73.367 95.0639 61.8745 99.222L42.4196 106.261C30.9272 110.419 25.181 112.498 22.9025 117.36C20.624 122.222 22.703 127.969 26.8613 139.461L28.5487 144.125C29.2983 146.196 29.9801 148.082 30.6231 149.792C36.4892 166.351 37.9206 174.933 32.3091 180.359C30.8031 181.815 30.0501 182.543 30.2736 182.977C30.4972 183.413 31.4052 183.247 33.2212 182.915C40.3846 181.606 47.1406 177.331 50.052 170.238C51.7946 165.993 52.6659 163.87 53.4427 163.128C54.2195 162.386 55.6081 161.889 58.3852 160.895ZM58.3852 160.895L48.7159 164.399" stroke="#040605" stroke-width="1.6458" stroke-linecap="round" stroke-linejoin="round"/>
<path d="M58.2934 123.078C56.1284 117.094 59.224 110.488 65.2077 108.323C71.1914 106.158 77.7973 109.254 79.9623 115.238C82.1273 121.222 79.0316 127.827 73.0479 129.992C67.0642 132.157 60.4583 129.062 58.2934 123.078Z" fill="white" stroke="#040605" stroke-width="1.6458" stroke-linecap="round" stroke-linejoin="round"/>
<mask id="mask3_113_1080" style="mask-type:luminance" maskUnits="userSpaceOnUse" x="56" y="106" width="26" height="26">
<path d="M58.2938 123.076C56.1288 117.092 59.2245 110.486 65.2082 108.321C71.1919 106.156 77.7978 109.252 79.9627 115.236C82.1277 121.22 79.0321 127.825 73.0484 129.99C67.0647 132.155 60.4588 129.06 58.2938 123.076Z" fill="white" stroke="#21242C" stroke-width="1.6458" stroke-linecap="round" stroke-linejoin="round"/>
</mask>
<g mask="url(#mask3_113_1080)">
<path d="M68.3293 116.272C66.6326 111.583 69.0587 106.406 73.7482 104.709C78.4378 103.012 83.6148 105.439 85.3116 110.128C87.0083 114.818 84.5822 119.995 79.8927 121.691C75.2032 123.388 70.0261 120.962 68.3293 116.272Z" fill="#040605"/>
</g>
<path d="M42.1166 128.93C39.9516 122.946 43.0473 116.34 49.031 114.175C55.0147 112.01 61.6205 115.106 63.7855 121.089C65.9505 127.073 62.8548 133.679 56.8711 135.844C50.8874 138.009 44.2816 134.913 42.1166 128.93Z" fill="white" stroke="#040605" stroke-width="1.6458" stroke-linecap="round" stroke-linejoin="round"/>
<mask id="mask4_113_1080" style="mask-type:luminance" maskUnits="userSpaceOnUse" x="40" y="112" width="26" height="26">
<path d="M42.1166 128.93C39.9516 122.946 43.0473 116.34 49.031 114.175C55.0147 112.01 61.6205 115.106 63.7855 121.089C65.9505 127.073 62.8548 133.679 56.8711 135.844C50.8874 138.009 44.2816 134.913 42.1166 128.93Z" fill="white" stroke="#21242C" stroke-width="1.6458" stroke-linecap="round" stroke-linejoin="round"/>
</mask>
<g mask="url(#mask4_113_1080)">
<path d="M52.1526 122.128C50.4558 117.438 52.882 112.261 57.5715 110.565C62.261 108.868 67.4381 111.294 69.1348 115.983C70.8316 120.673 68.4054 125.85 63.7159 127.547C59.0264 129.244 53.8493 126.817 52.1526 122.128Z" fill="#040605"/>
</g>
<path d="M60.9604 136.409C61.7954 137.77 62.0893 139.273 61.5426 140.582M61.5426 140.582C61.0962 141.652 60.0887 142.592 58.3569 143.217M61.5426 140.582C65.4662 142.619 71.4182 140.977 73.4051 136.291" stroke="#040605" stroke-width="1.6458" stroke-linecap="round"/>
<path d="M50.2463 92.8998C53.6887 92.8998 56.4794 90.1091 56.4794 86.6667C56.4794 83.2242 53.6887 80.4336 50.2463 80.4336C46.8038 80.4336 44.0132 83.2242 44.0132 86.6667C44.0132 90.1091 46.8038 92.8998 50.2463 92.8998Z" fill="white" stroke="#040605" stroke-width="1.6458" stroke-linecap="round" stroke-linejoin="round"/>
<path d="M62.1981 76.2039C64.2489 76.2039 65.9114 74.5414 65.9114 72.4906C65.9114 70.4398 64.2489 68.7773 62.1981 68.7773C60.1474 68.7773 58.4849 70.4398 58.4849 72.4906C58.4849 74.5414 60.1474 76.2039 62.1981 76.2039Z" fill="white" stroke="#040605" stroke-width="1.6458" stroke-linecap="round" stroke-linejoin="round"/>
<path d="M59.1919 163.152C59.1933 163.152 59.1947 163.152 59.1961 163.151C60.2514 162.773 61.36 162.373 62.5226 161.952L62.531 161.949L62.5634 161.937L62.5651 161.936L82.0184 154.898L82.188 154.836C87.7903 152.809 92.2244 151.205 95.5251 149.484C98.9207 147.713 101.439 145.659 102.89 142.562C104.143 139.888 104.29 137.095 103.781 133.964L129.429 141.6H129.431L129.44 141.602L129.442 141.604L129.461 141.608L129.471 141.612C131.347 142.17 133.134 142.703 134.832 143.201C134.835 143.202 134.836 143.202 134.837 143.203L137.935 144.126C138.679 144.357 139.311 144.563 139.859 144.763C141.049 145.196 141.606 145.516 141.921 145.784C142.168 145.994 142.692 146.678 143.656 148.483C144.566 150.19 145.71 152.572 147.281 155.846C152.934 167.63 164.763 174.079 176.716 175.556L176.864 175.574C178.176 175.737 179.378 175.885 180.284 175.887C180.755 175.887 181.368 175.854 181.967 175.648C182.641 175.418 183.414 174.921 183.832 173.979C184.292 172.939 184.039 171.971 183.746 171.362C183.474 170.797 183.071 170.318 182.727 169.951C182.052 169.23 181.035 168.355 179.881 167.361L179.771 167.268C175.82 163.865 174.005 159.248 174.162 152.014C174.322 144.649 176.524 134.897 180.373 121.644C181.229 118.891 182.128 115.866 183.112 112.563L183.115 112.554L185.34 105.081L185.393 104.902C188.089 95.8455 190.182 88.8137 191.076 83.123C191.986 77.3263 191.714 72.5672 189.356 68.2092C186.998 63.8512 183.161 61.0216 177.811 58.6129C172.558 56.2484 165.526 54.155 156.469 51.4589L156.291 51.4058L125.116 42.1251L124.938 42.0721C115.882 39.3758 108.85 37.2825 103.159 36.3892C97.3622 35.4793 92.6031 35.7502 88.2451 38.1087C83.8872 40.4672 81.0575 44.3033 78.6489 49.6539C76.3747 54.7059 74.3513 61.4036 71.8014 69.9657L68.1582 71.1451C67.5453 68.4186 65.1094 66.3818 62.1979 66.3818C58.8239 66.3818 56.0888 69.1169 56.0888 72.4909C56.0888 74.8611 57.4386 76.916 59.4114 77.9289C59.2573 81.6052 60.5381 85.3335 61.6698 88.355C61.8866 88.9338 62.0989 89.4875 62.3031 90.0201C62.8318 91.3989 63.3064 92.6365 63.6647 93.8043C63.9224 94.6445 64.0753 95.3189 64.1471 95.8561C63.1659 96.2078 62.1406 96.5787 61.0697 96.9662L61.0664 96.9673L61.0612 96.9692L61.0591 96.97L61.0472 96.9743L61.046 96.9748L41.6041 104.009L41.4344 104.071C35.8321 106.097 31.3981 107.702 28.0974 109.423C24.7019 111.195 22.1837 113.248 20.7328 116.345C19.2819 119.44 19.3149 122.69 20.1264 126.433C20.9152 130.071 22.5196 134.505 24.5467 140.107L24.6081 140.277L26.2955 144.941L26.2991 144.951C27.0428 147.006 27.7262 148.895 28.3719 150.615C31.3015 158.886 33.0199 164.898 33.3816 169.441C33.7331 173.855 32.7871 176.564 30.6435 178.637L30.5533 178.725C29.8787 179.376 29.2347 179.998 28.8017 180.519C28.5798 180.785 28.2729 181.186 28.0701 181.678C27.8488 182.216 27.6547 183.125 28.1424 184.074C28.5812 184.927 29.3258 185.338 29.929 185.507C30.456 185.654 30.9605 185.646 31.2918 185.626C31.923 185.59 32.7288 185.442 33.5258 185.296L33.6516 185.273C41.3999 183.857 48.9711 179.18 52.2681 171.149C53.1482 169.004 53.7786 167.471 54.2845 166.374C54.5358 165.83 54.7336 165.444 54.8933 165.173C55.0296 164.942 55.1013 164.859 55.1055 164.853C55.19 164.775 55.4256 164.603 56.1118 164.307C56.4366 164.167 56.8147 164.019 57.2667 163.85L59.1919 163.152ZM30.9419 180.845H30.957C30.9468 180.846 30.9419 180.845 30.9419 180.845ZM63.5154 72.4909C63.5154 72.5452 63.5121 72.5987 63.5057 72.6513L61.4599 73.3135C61.3852 73.3377 61.3122 73.3654 61.2409 73.3965C61.0174 73.1604 60.8804 72.8416 60.8804 72.4909C60.8804 71.7632 61.4702 71.1734 62.1979 71.1734C62.9254 71.1734 63.5154 71.7632 63.5154 72.4909ZM50.2464 95.2962C55.012 95.2962 58.8752 91.4329 58.8752 86.6673C58.8752 81.9017 55.012 78.0384 50.2464 78.0384C45.4808 78.0384 41.6175 81.9017 41.6175 86.6673C41.6175 91.4329 45.4808 95.2962 50.2464 95.2962Z" fill="white"/>
<path d="M183.832 173.979C183.414 174.921 182.641 175.418 181.967 175.648C181.368 175.854 180.755 175.887 180.284 175.887C179.378 175.885 178.176 175.737 176.864 175.574L176.716 175.556C164.763 174.079 152.934 167.63 147.281 155.846C145.71 152.572 144.566 150.19 143.656 148.483C142.692 146.678 142.168 145.994 141.921 145.784C141.606 145.516 141.049 145.196 139.859 144.763C139.311 144.563 138.679 144.357 137.935 144.126L134.837 143.203C134.836 143.202 134.835 143.202 134.832 143.201C133.134 142.703 131.347 142.17 129.471 141.612L129.461 141.608L129.442 141.604L129.44 141.602L129.431 141.6H129.429L103.781 133.964C104.29 137.095 104.143 139.888 102.89 142.562C101.439 145.659 98.9207 147.713 95.5251 149.484C92.2244 151.205 87.7903 152.809 82.188 154.836L82.0184 154.898L62.5651 161.936L62.5634 161.937L62.531 161.949L62.5226 161.952C61.36 162.373 60.2514 162.773 59.1961 163.151C59.1947 163.152 59.1933 163.152 59.1919 163.152L57.2667 163.85C56.8147 164.019 56.4366 164.167 56.1118 164.307C55.4256 164.603 55.19 164.775 55.1055 164.853C55.1013 164.859 55.0296 164.942 54.8933 165.173C54.7336 165.444 54.5358 165.83 54.2845 166.374C53.7786 167.471 53.1482 169.004 52.2681 171.149C48.9711 179.18 41.3999 183.857 33.6516 185.273L33.5258 185.296C32.7288 185.442 31.923 185.59 31.2918 185.626C30.9605 185.646 30.456 185.654 29.929 185.507C29.3258 185.338 28.5812 184.927 28.1424 184.074C27.6547 183.125 27.8488 182.216 28.0701 181.678C28.2729 181.186 28.5798 180.785 28.8017 180.519C29.2347 179.998 29.8787 179.376 30.5533 178.725L30.6435 178.637C32.7871 176.564 33.7331 173.855 33.3816 169.441C33.0199 164.898 31.3015 158.886 28.3719 150.615C27.7262 148.895 27.0428 147.006 26.2991 144.951L26.2955 144.941L24.6081 140.277L24.5467 140.107C22.5196 134.505 20.9152 130.071 20.1264 126.433C19.3149 122.69 19.2819 119.44 20.7328 116.345C22.1837 113.248 24.7019 111.195 28.0974 109.423C31.3981 107.702 35.8321 106.097 41.4344 104.071L41.6041 104.009L61.046 96.9748L61.0472 96.9743L61.0591 96.97L61.0612 96.9692L61.0664 96.9673L61.0697 96.9662C62.1406 96.5787 63.1659 96.2078 64.1471 95.8561C64.0753 95.3189 63.9224 94.6445 63.6647 93.8043C63.3064 92.6365 62.8318 91.3989 62.3031 90.0201C62.0989 89.4875 61.8866 88.9338 61.6698 88.355C60.5381 85.3335 59.2573 81.6052 59.4114 77.9289C57.4386 76.916 56.0888 74.8611 56.0888 72.4909C56.0888 69.1169 58.8239 66.3818 62.1979 66.3818C65.1094 66.3818 67.5453 68.4186 68.1582 71.1451L71.8014 69.9657C74.3513 61.4036 76.3747 54.7059 78.6489 49.6539C81.0575 44.3033 83.8872 40.4672 88.2451 38.1087C92.6031 35.7502 97.3622 35.4793 103.159 36.3892C108.85 37.2825 115.882 39.3758 124.938 42.0721L125.116 42.1251L156.291 51.4058L156.469 51.4589C165.526 54.155 172.558 56.2484 177.811 58.6129C183.161 61.0216 186.998 63.8512 189.356 68.2092C191.714 72.5672 191.986 77.3263 191.076 83.123C190.182 88.8137 188.089 95.8455 185.393 104.902L185.34 105.081L183.115 112.554L183.112 112.563C182.128 115.866 181.229 118.891 180.373 121.644C176.524 134.897 174.322 144.649 174.162 152.014C174.005 159.248 175.82 163.865 179.771 167.268L179.881 167.361C181.035 168.355 182.052 169.23 182.727 169.951C183.071 170.318 183.474 170.797 183.746 171.362C184.039 171.971 184.292 172.939 183.832 173.979ZM183.832 173.979L181.667 173.02M30.9419 180.845H30.957C30.9468 180.846 30.9419 180.845 30.9419 180.845ZM63.5154 72.4909C63.5154 72.5452 63.5121 72.5987 63.5057 72.6513L61.4599 73.3135C61.3852 73.3377 61.3122 73.3654 61.2409 73.3965C61.0174 73.1604 60.8804 72.8416 60.8804 72.4909C60.8804 71.7632 61.4702 71.1734 62.1979 71.1734C62.9254 71.1734 63.5154 71.7632 63.5154 72.4909ZM50.2464 95.2961C55.012 95.2961 58.8752 91.4329 58.8752 86.6673C58.8752 81.9017 55.012 78.0384 50.2464 78.0384C45.4808 78.0384 41.6175 81.9017 41.6175 86.6673C41.6175 91.4329 45.4808 95.2961 50.2464 95.2961Z" stroke="#F6FA5E" stroke-width="4.79161" stroke-linecap="round" stroke-linejoin="round"/>
<path d="M124.433 44.4221L155.609 53.7028C174.024 59.185 183.231 61.9263 187.25 69.3503C191.267 76.7744 188.526 85.9822 183.043 104.398L180.819 111.872C179.831 115.191 178.932 118.212 178.078 120.955C170.375 147.477 168.909 161.078 178.209 169.083C180.705 171.232 181.953 172.306 181.641 173.01C181.33 173.712 179.89 173.535 177.01 173.179C165.647 171.775 154.655 165.679 149.442 154.811C146.32 148.306 144.76 145.052 143.473 143.959C142.187 142.865 139.962 142.212 135.514 140.905C133.809 140.405 132.014 139.87 130.124 139.308L98.9492 130.026C80.5336 124.544 71.3258 121.803 67.308 114.379C63.2901 106.955 66.0312 97.7473 71.5135 79.3317L73.7385 71.8578C79.2207 53.4423 81.9618 44.2345 89.386 40.2167C96.8101 36.1988 106.018 38.9399 124.433 44.4221Z" fill="white"/>
<path d="M135.514 140.905C133.809 140.405 132.014 139.87 130.124 139.308L98.9492 130.026C80.5336 124.544 71.3258 121.803 67.308 114.379C63.2901 106.955 66.0312 97.7473 71.5135 79.3317L73.7385 71.8578C79.2207 53.4423 81.9618 44.2345 89.386 40.2167C96.8101 36.1988 106.018 38.9399 124.433 44.4221L155.609 53.7028C174.024 59.185 183.231 61.9263 187.25 69.3503C191.267 76.7744 188.526 85.9822 183.043 104.398L180.819 111.872C179.831 115.191 178.932 118.212 178.078 120.955C170.375 147.477 168.909 161.078 178.209 169.083C180.705 171.232 181.953 172.306 181.641 173.01C181.331 173.712 179.89 173.535 177.01 173.179C165.647 171.775 154.655 165.679 149.442 154.811C146.32 148.306 144.76 145.052 143.473 143.959C142.187 142.865 139.962 142.212 135.514 140.905ZM135.514 140.905L151.008 145.525" stroke="#040605" stroke-width="1.6458" stroke-linecap="round" stroke-linejoin="round"/>
<path d="M144.534 104.176C145.103 106.83 144.532 110.258 143.041 112.754" stroke="#040605" stroke-width="1.6458" stroke-linecap="round"/>
<path d="M131.618 80.9866C134.02 72.917 129.426 64.4278 121.356 62.0255C113.287 59.6232 104.797 64.2175 102.395 72.2871C99.9929 80.3567 104.587 88.8459 112.657 91.2482C120.726 93.6505 129.216 89.0562 131.618 80.9866Z" fill="white" stroke="#040605" stroke-width="1.6458" stroke-linecap="round" stroke-linejoin="round"/>
<mask id="mask5_113_1080" style="mask-type:luminance" maskUnits="userSpaceOnUse" x="100" y="60" width="34" height="33">
<path d="M131.618 80.9846C134.021 72.915 129.426 64.4258 121.357 62.0235C113.287 59.6212 104.798 64.2155 102.396 72.2851C99.9933 80.3548 104.588 88.8439 112.657 91.2462C120.727 93.6485 129.216 89.0543 131.618 80.9846Z" fill="white" stroke="#21242C" stroke-width="1.6458" stroke-linecap="round" stroke-linejoin="round"/>
</mask>
<g mask="url(#mask5_113_1080)">
<path d="M118.146 85.0152C120.029 78.6909 116.428 72.0378 110.104 70.1551C103.78 68.2724 97.1267 71.873 95.2439 78.1973C93.3612 84.5216 96.9618 91.1747 103.286 93.0574C109.61 94.9401 116.264 91.3395 118.146 85.0152Z" fill="#040605"/>
</g>
<path d="M153.435 87.4788C155.838 79.4092 151.243 70.92 143.174 68.5177C135.104 66.1154 126.615 70.7096 124.213 78.7793C121.81 86.8489 126.405 95.3381 134.474 97.7404C142.544 100.143 151.033 95.5484 153.435 87.4788Z" fill="white" stroke="#040605" stroke-width="1.6458" stroke-linecap="round" stroke-linejoin="round"/>
<mask id="mask6_113_1080" style="mask-type:luminance" maskUnits="userSpaceOnUse" x="122" y="67" width="33" height="33">
<path d="M153.435 87.4788C155.838 79.4092 151.243 70.92 143.174 68.5177C135.104 66.1154 126.615 70.7096 124.213 78.7793C121.81 86.8489 126.405 95.3381 134.474 97.7404C142.544 100.143 151.033 95.5484 153.435 87.4788Z" fill="white" stroke="#21242C" stroke-width="1.6458" stroke-linecap="round" stroke-linejoin="round"/>
</mask>
<g mask="url(#mask6_113_1080)">
<path d="M139.963 91.5094C141.846 85.1851 138.245 78.532 131.921 76.6492C125.597 74.7665 118.944 78.3671 117.061 84.6914C115.178 91.0157 118.779 97.6688 125.103 99.5516C131.427 101.434 138.08 97.8337 139.963 91.5094Z" fill="#040605"/>
</g>
<path d="M107.79 102.947C107.168 108.156 112.21 115.956 121.749 117.095C134.038 118.562 138.28 111.143 138.816 106.652C139.512 100.822 132.403 101.364 123.836 100.341C115.268 99.318 108.412 97.7391 107.79 102.947Z" fill="#040605" stroke="#040605" stroke-width="1.6458" stroke-linecap="round" stroke-linejoin="round"/>
<mask id="mask7_113_1080" style="mask-type:luminance" maskUnits="userSpaceOnUse" x="106" y="98" width="34" height="20">
<path d="M107.79 102.947C107.168 108.156 111.987 115.3 121.776 116.469C133.374 117.854 138.28 111.143 138.816 106.652C139.512 100.822 132.403 101.364 123.836 100.341C115.268 99.318 108.412 97.7391 107.79 102.947Z" fill="#040605" stroke="#43B9B5" stroke-width="1.6458" stroke-linecap="round" stroke-linejoin="round"/>
</mask>
<g mask="url(#mask7_113_1080)">
<path d="M113.175 117.279C111.383 107.53 115.37 100.967 124.371 96.9727L132.455 97.938L144.47 100.326L143.947 111.895L134.137 119.782L113.175 117.279Z" fill="white" stroke="#43B9B5" stroke-width="1.6458" stroke-linecap="round" stroke-linejoin="round"/>
</g>
<path d="M118.376 99.6508C120.076 99.8534 121.913 100.111 123.836 100.341C132.403 101.364 139.512 100.821 138.816 106.652C138.28 111.143 132.607 119.128 121.85 117.283C113.283 116.26 107.168 108.155 107.79 102.947C108.272 98.9079 112.504 98.9509 118.376 99.6508ZM118.376 99.6508C112.804 99.2467 109.681 98.9256 104.097 98.0742" stroke="#040605" stroke-width="1.6458" stroke-linecap="round" stroke-linejoin="round"/>
<path d="M61.8745 99.222L42.4196 106.261C30.9272 110.419 25.181 112.498 22.9025 117.36C20.624 122.222 22.703 127.969 26.8613 139.461L28.5487 144.125C29.2983 146.196 29.9801 148.082 30.6231 149.792C36.4892 166.351 37.9206 174.933 32.3091 180.359C30.8031 181.815 30.0501 182.543 30.2736 182.977C30.4972 183.413 31.4052 183.247 33.2212 182.915C40.3846 181.606 47.1406 177.331 50.052 170.238C51.7946 165.993 52.6659 163.87 53.4427 163.128C54.2195 162.386 55.6081 161.889 58.3852 160.895C59.4492 160.515 60.5686 160.11 61.7486 159.683L81.2036 152.645C92.6959 148.487 98.4422 146.407 100.721 141.545C102.999 136.684 100.92 130.937 96.7619 119.444L95.0743 114.78C90.9162 103.288 88.8372 97.5418 83.9752 95.2633C79.1132 92.9849 73.367 95.0639 61.8745 99.222Z" fill="white"/>
<path d="M58.3852 160.895C59.4492 160.515 60.5686 160.11 61.7486 159.683L81.2036 152.645C92.6959 148.487 98.4422 146.407 100.721 141.545C102.999 136.684 100.92 130.937 96.7619 119.444L95.0743 114.78C90.9162 103.288 88.8372 97.5418 83.9752 95.2633C79.1132 92.9849 73.367 95.0639 61.8745 99.222L42.4196 106.261C30.9272 110.419 25.181 112.498 22.9025 117.36C20.624 122.222 22.703 127.969 26.8613 139.461L28.5487 144.125C29.2983 146.196 29.9801 148.082 30.6231 149.792C36.4892 166.351 37.9206 174.933 32.3091 180.359C30.8031 181.815 30.0501 182.543 30.2736 182.977C30.4972 183.413 31.4052 183.247 33.2212 182.915C40.3846 181.606 47.1406 177.331 50.052 170.238C51.7946 165.993 52.6659 163.87 53.4427 163.128C54.2195 162.386 55.6081 161.889 58.3852 160.895ZM58.3852 160.895L48.7159 164.399" stroke="#040605" stroke-width="1.6458" stroke-linecap="round" stroke-linejoin="round"/>
<path d="M58.2934 123.078C56.1284 117.094 59.224 110.488 65.2077 108.323C71.1914 106.158 77.7973 109.254 79.9623 115.238C82.1273 121.222 79.0316 127.827 73.0479 129.992C67.0642 132.157 60.4583 129.062 58.2934 123.078Z" fill="white" stroke="#040605" stroke-width="1.6458" stroke-linecap="round" stroke-linejoin="round"/>
<mask id="mask8_113_1080" style="mask-type:luminance" maskUnits="userSpaceOnUse" x="56" y="106" width="26" height="26">
<path d="M58.2938 123.076C56.1288 117.092 59.2245 110.486 65.2082 108.321C71.1919 106.156 77.7978 109.252 79.9627 115.236C82.1277 121.22 79.0321 127.825 73.0484 129.99C67.0647 132.155 60.4588 129.06 58.2938 123.076Z" fill="white" stroke="#21242C" stroke-width="1.6458" stroke-linecap="round" stroke-linejoin="round"/>
</mask>
<g mask="url(#mask8_113_1080)">
<path d="M68.3293 116.272C66.6326 111.583 69.0587 106.406 73.7482 104.709C78.4378 103.012 83.6148 105.439 85.3116 110.128C87.0083 114.818 84.5822 119.995 79.8927 121.691C75.2032 123.388 70.0261 120.962 68.3293 116.272Z" fill="#040605"/>
</g>
<path d="M42.1166 128.93C39.9516 122.946 43.0473 116.34 49.031 114.175C55.0147 112.01 61.6205 115.106 63.7855 121.089C65.9505 127.073 62.8548 133.679 56.8711 135.844C50.8874 138.009 44.2816 134.913 42.1166 128.93Z" fill="white" stroke="#040605" stroke-width="1.6458" stroke-linecap="round" stroke-linejoin="round"/>
<mask id="mask9_113_1080" style="mask-type:luminance" maskUnits="userSpaceOnUse" x="40" y="112" width="26" height="26">
<path d="M42.1166 128.93C39.9516 122.946 43.0473 116.34 49.031 114.175C55.0147 112.01 61.6205 115.106 63.7855 121.089C65.9505 127.073 62.8548 133.679 56.8711 135.844C50.8874 138.009 44.2816 134.913 42.1166 128.93Z" fill="white" stroke="#21242C" stroke-width="1.6458" stroke-linecap="round" stroke-linejoin="round"/>
</mask>
<g mask="url(#mask9_113_1080)">
<path d="M52.1526 122.128C50.4558 117.438 52.882 112.261 57.5715 110.565C62.261 108.868 67.4381 111.294 69.1348 115.983C70.8316 120.673 68.4054 125.85 63.7159 127.547C59.0264 129.244 53.8493 126.817 52.1526 122.128Z" fill="#040605"/>
</g>
<path d="M60.9604 136.409C61.7954 137.77 62.0893 139.273 61.5426 140.582M61.5426 140.582C61.0962 141.652 60.0887 142.592 58.3569 143.217M61.5426 140.582C65.4662 142.619 71.4182 140.977 73.4051 136.291" stroke="#226461" stroke-width="1.6458" stroke-linecap="round"/>
<path d="M50.2463 92.8998C53.6887 92.8998 56.4794 90.1091 56.4794 86.6667C56.4794 83.2242 53.6887 80.4336 50.2463 80.4336C46.8038 80.4336 44.0132 83.2242 44.0132 86.6667C44.0132 90.1091 46.8038 92.8998 50.2463 92.8998Z" fill="white" stroke="#040605" stroke-width="1.6458" stroke-linecap="round" stroke-linejoin="round"/>
<path d="M62.1981 76.2039C64.2489 76.2039 65.9114 74.5414 65.9114 72.4906C65.9114 70.4398 64.2489 68.7773 62.1981 68.7773C60.1474 68.7773 58.4849 70.4398 58.4849 72.4906C58.4849 74.5414 60.1474 76.2039 62.1981 76.2039Z" fill="white" stroke="#040605" stroke-width="1.6458" stroke-linecap="round" stroke-linejoin="round"/>
</g>
<defs>
<clipPath id="clip0_113_1080">
<rect width="217.22" height="217.22" fill="white" transform="translate(0.744141 0.0488281)"/>
</clipPath>
</defs>
</svg>
