<svg width="218" height="218" viewBox="0 0 218 218" fill="none" xmlns="http://www.w3.org/2000/svg">
<mask id="mask0_113_1029" style="mask-type:luminance" maskUnits="userSpaceOnUse" x="36" y="10" width="145" height="196">
<path d="M36.4233 10.8672H180.45V205.657H36.4233V10.8672Z" fill="white"/>
<path fill-rule="evenodd" clip-rule="evenodd" d="M114.884 28.3097C100.411 20.1166 85.1048 16.2733 74.9766 16.8207C62.2058 17.511 44.2763 29.2818 42.4737 46.4367C42.2729 48.348 42.2723 50.3262 42.5013 52.3633C43.5383 61.5879 49.284 72.0214 62.472 82.9323L62.5243 82.9756C63.4128 83.7096 64.335 84.4458 65.2917 85.1839C72.7892 90.9687 79.0732 96.5114 84.3427 101.839C111.111 128.9 111.705 150.405 112.242 169.841C112.284 171.345 112.325 172.837 112.378 174.318C112.549 179.106 112.843 183.781 113.669 188.398L113.687 188.494C113.841 189.379 113.969 190.437 114.103 191.544C114.561 195.337 115.09 199.71 116.98 199.71C118.693 199.71 120.352 196.64 121.937 193.704C122.629 192.424 123.306 191.169 123.968 190.206C127.02 185.768 129.879 181.488 132.541 177.337C156.964 139.247 164.754 111.845 151.315 70.0871C148.888 62.5434 145.105 55.7951 140.447 49.8455C140.347 49.718 140.246 49.5908 140.146 49.4641L140.162 49.4594C138.989 47.9607 137.748 46.5303 136.453 45.1607C131.808 40.1391 126.543 35.7804 121.019 32.0873C120.916 32.0185 120.812 31.95 120.71 31.8816C118.793 30.6111 116.846 29.4204 114.884 28.3097ZM152.85 48.3573C153.478 43.7788 157.698 40.5759 162.276 41.2033C166.856 41.8309 170.059 46.0513 169.431 50.6298C168.804 55.2085 164.583 58.4113 160.004 57.7838C155.426 57.1562 152.223 52.9358 152.85 48.3573ZM171.02 60.9576C168.674 60.636 166.511 62.2773 166.189 64.6236C165.868 66.97 167.509 69.1327 169.856 69.4543C172.201 69.7759 174.364 68.1346 174.685 65.7883C175.007 63.4419 173.366 61.2792 171.02 60.9576Z" fill="black"/>
</mask>
<g mask="url(#mask0_113_1029)">
<path d="M62.4721 82.9328L59.4178 86.6248L59.4189 86.6256L62.4721 82.9328ZM62.5244 82.9761L59.471 86.6688L59.4725 86.67L62.5244 82.9761ZM113.67 188.399L108.953 189.243L108.954 189.246L113.67 188.399ZM113.687 188.494L118.408 187.673L118.405 187.66L118.403 187.647L113.687 188.494ZM121.937 193.704L126.153 195.981L126.19 195.914L126.223 195.847L121.937 193.704ZM121.937 193.704L117.721 191.427L117.685 191.494L117.652 191.561L121.937 193.704ZM132.541 177.337L136.575 179.924L137.72 178.139L137.169 176.092L132.541 177.337ZM132.541 177.337L128.508 174.75L127.363 176.535L127.914 178.582L132.541 177.337ZM140.146 49.4645L138.834 44.8561L131.929 46.8214L136.393 52.4439L140.146 49.4645ZM140.163 49.4599L141.474 54.0684L148.33 52.1172L143.936 46.5058L140.163 49.4599ZM136.453 45.1612L132.936 48.4152L132.954 48.4344L132.972 48.4534L136.453 45.1612ZM75.2353 21.6058C84.2002 21.1212 98.597 24.5965 112.524 32.4801L117.245 24.1404C102.224 15.6376 86.0095 11.4262 74.718 12.0366L75.2353 21.6058ZM47.2392 46.9378C47.9749 39.9359 52.0388 33.7653 57.6518 29.1591C63.3091 24.5165 70.0371 21.8868 75.2353 21.6058L74.718 12.0366C67.1455 12.4459 58.5234 16.0468 51.5725 21.7509C44.5775 27.4913 38.7753 35.7835 37.7084 45.9364L47.2392 46.9378ZM47.263 51.8285C47.0729 50.137 47.0744 48.5062 47.2392 46.9378L37.7084 45.9364C37.4716 48.1907 37.472 50.5163 37.7397 52.8991L47.263 51.8285ZM65.5265 79.2409C52.9261 68.8161 48.1157 59.4141 47.263 51.8285L37.7397 52.8991C38.961 63.7628 45.642 75.2277 59.4178 86.6248L65.5265 79.2409ZM65.5777 79.2832L65.5255 79.24L59.4189 86.6256L59.471 86.6688L65.5777 79.2832ZM68.2189 81.3907C67.303 80.6841 66.4225 79.9811 65.5763 79.282L59.4725 86.67C60.4033 87.439 61.3671 88.2085 62.3648 88.9782L68.2189 81.3907ZM87.7494 98.4696C82.3099 92.9705 75.8618 87.2878 68.2189 81.3907L62.3648 88.9782C69.7169 94.6506 75.8366 100.053 80.9361 105.209L87.7494 98.4696ZM117.032 169.71C116.764 160.03 116.487 149.16 112.695 137.246C108.875 125.248 101.596 112.469 87.7494 98.4696L80.9361 105.209C93.857 118.271 100.259 129.774 103.563 140.153C106.894 150.617 107.183 160.217 107.452 169.974L117.032 169.71ZM117.166 174.147C117.114 172.689 117.074 171.217 117.032 169.71L107.452 169.974C107.494 171.474 107.536 172.986 107.589 174.49L117.166 174.147ZM118.386 187.556C117.621 183.278 117.335 178.873 117.166 174.147L107.589 174.49C107.763 179.34 108.066 184.286 108.953 189.243L118.386 187.556ZM118.403 187.647L118.385 187.551L108.954 189.246L108.971 189.342L118.403 187.647ZM118.86 190.97C118.73 189.9 118.587 188.706 118.408 187.673L108.966 189.317C109.094 190.053 109.207 190.976 109.346 192.121L118.86 190.97ZM116.98 194.92C118.68 194.92 119.575 196.005 119.747 196.255C119.88 196.448 119.792 196.396 119.629 195.795C119.314 194.634 119.103 192.978 118.86 190.97L109.346 192.121C109.562 193.905 109.844 196.332 110.381 198.306C110.643 199.273 111.071 200.55 111.848 201.682C112.665 202.871 114.335 204.503 116.98 204.503V194.92ZM117.721 191.428C116.881 192.983 116.231 194.168 115.634 194.986C115.342 195.388 115.219 195.477 115.279 195.43C115.331 195.389 115.932 194.92 116.98 194.92V204.503C118.884 204.503 120.335 203.65 121.23 202.941C122.132 202.226 122.844 201.365 123.379 200.63C124.435 199.181 125.408 197.363 126.153 195.981L117.721 191.428ZM120.02 187.492C119.181 188.712 118.373 190.219 117.721 191.427L126.153 195.981C126.884 194.628 127.43 193.627 127.917 192.921L120.02 187.492ZM128.508 174.75C125.879 178.85 123.049 183.085 120.02 187.492L127.917 192.921C130.99 188.451 133.88 184.128 136.575 179.924L128.508 174.75ZM146.755 71.5556C153.284 91.8435 154.556 108.296 151.426 124.161C148.275 140.127 140.591 155.905 128.508 174.75L136.575 179.924C148.914 160.68 157.336 143.712 160.828 126.015C164.339 108.218 162.787 90.09 155.877 68.6196L146.755 71.5556ZM136.674 52.8001C141.023 58.3544 144.518 64.6068 146.755 71.5556L155.877 68.6196C153.257 60.4809 149.188 53.2367 144.219 46.8918L136.674 52.8001ZM136.393 52.4439C136.488 52.5624 136.581 52.6812 136.674 52.8001L144.219 46.8918C144.112 46.7558 144.006 46.6203 143.899 46.4853L136.393 52.4439ZM138.851 44.8513L138.834 44.8561L141.458 54.0732L141.474 54.0684L138.851 44.8513ZM132.972 48.4534C134.173 49.7226 135.314 51.0407 136.39 52.4141L143.936 46.5058C142.664 44.8819 141.325 43.3391 139.935 41.8692L132.972 48.4534ZM118.356 36.0712C123.605 39.5808 128.576 43.7008 132.936 48.4152L139.971 41.9073C135.041 36.5782 129.48 31.9809 123.682 28.1043L118.356 36.0712ZM118.062 35.8759C118.16 35.9407 118.258 36.0059 118.356 36.0712L123.682 28.1043C123.574 28.0321 123.466 27.9601 123.358 27.8883L118.062 35.8759ZM112.524 32.4801C114.391 33.5371 116.242 34.6692 118.063 35.8759L123.358 27.8883C121.345 26.554 119.301 25.3047 117.245 24.1404L112.524 32.4801ZM162.927 36.4566C155.727 35.4697 149.09 40.5067 148.103 47.7071L157.598 49.0085C157.866 47.0518 159.67 45.6829 161.626 45.9511L162.927 36.4566ZM174.178 51.281C175.165 44.0807 170.128 37.4435 162.927 36.4566L161.626 45.9511C163.583 46.2194 164.952 48.023 164.684 49.9797L174.178 51.281ZM159.354 62.5315C166.554 63.5184 173.191 58.4814 174.178 51.281L164.684 49.9797C164.416 51.9364 162.612 53.3052 160.654 53.037L159.354 62.5315ZM148.103 47.7071C147.116 54.9074 152.153 61.5446 159.354 62.5315L160.654 53.037C158.698 52.7689 157.329 50.9651 157.598 49.0085L148.103 47.7071ZM170.936 65.2749C170.898 65.5503 170.644 65.7431 170.369 65.7053L171.67 56.2108C166.702 55.5298 162.123 59.0053 161.442 63.9734L170.936 65.2749ZM170.506 64.7076C170.781 64.7454 170.974 64.9993 170.936 65.2749L161.442 63.9734C160.761 68.9416 164.236 73.5211 169.204 74.202L170.506 64.7076ZM169.938 65.138C169.976 64.8626 170.23 64.6698 170.506 64.7076L169.204 74.202C174.173 74.8831 178.752 71.4075 179.433 66.4395L169.938 65.138ZM170.369 65.7053C170.094 65.6675 169.9 65.4136 169.938 65.138L179.433 66.4395C180.115 61.4713 176.639 56.8918 171.67 56.2108L170.369 65.7053Z" fill="#31F7C8"/>
</g>
<path d="M117.134 199.979C115.439 196.139 114.365 192.29 113.669 188.4C112.843 183.783 112.549 179.108 112.378 174.32C111.64 153.702 113.182 130.996 84.3427 101.841C79.0731 96.5134 72.7892 90.9706 65.2917 85.1858C64.3162 84.4332 63.3766 83.6826 62.472 82.9343C20.232 47.9879 54.3398 17.9382 74.9765 16.8227C86.4779 16.201 104.656 21.2413 120.709 31.8836C128.002 36.7176 134.856 42.7074 140.447 49.8474C145.105 55.797 148.888 62.5454 151.315 70.089C164.756 111.847 156.964 139.249 132.541 177.338C129.879 181.49 127.02 185.769 123.968 190.208C121.787 193.38 119.509 196.633 117.134 199.979Z" fill="white" stroke="#21242C" stroke-width="1.96888" stroke-linecap="round" stroke-linejoin="round"/>
<path d="M117.135 199.978C115.439 196.138 114.366 192.289 113.67 188.399C112.844 183.782 112.55 179.106 112.378 174.319C113.807 172.842 117.98 170.101 119.407 173.054C120.836 176.007 123.058 173.875 125.915 173.054C128.77 172.234 131.907 175.04 132.542 177.337C129.88 181.489 127.02 185.768 123.968 190.207C121.787 193.378 119.509 196.631 117.135 199.978Z" fill="white" stroke="#21242C" stroke-width="1.96888" stroke-linecap="round" stroke-linejoin="round"/>
<path d="M117.134 199.978C115.439 196.138 114.365 192.289 113.669 188.4C116.086 188.32 121.529 188.571 123.968 190.206C121.787 193.378 119.509 196.631 117.134 199.978Z" fill="#21242C"/>
<path d="M65.0077 84.8008C64.0322 84.0482 63.0926 83.2975 62.188 82.5491C67.8212 65.2668 86.8626 33.8654 120.169 31.8965C127.461 36.7305 134.572 42.3223 140.163 49.4623C107.873 58.6503 89.8707 86.9154 84.2375 100.807C78.968 95.4795 72.5052 90.5855 65.0077 84.8008Z" fill="white" stroke="#21242C" stroke-width="1.96888" stroke-linecap="round" stroke-linejoin="round"/>
<path d="M104.866 99.3867C111.101 105.786 123.636 126.491 123.898 158.125M140.47 125.475C139.026 137.025 136.806 145.163 135.876 147.788M134.071 153.858L132.594 158.125" stroke="#21242C" stroke-width="1.96888" stroke-linecap="round" stroke-linejoin="round"/>
<path d="M74.9766 16.8227C86.5517 16.197 104.889 21.3063 121.019 32.0892C87.7118 34.058 68.1575 65.6952 62.5243 82.9775C20.2038 48.0127 54.3313 17.9387 74.9766 16.8227Z" fill="white" stroke="#21242C" stroke-width="1.96888" stroke-linecap="round" stroke-linejoin="round"/>
<path d="M47.2764 48.6889C56.4644 51.4782 64.1759 39.5009 65.9807 35.7272M68.6058 30.9691L70.2466 25.8828M68.6058 87.7382C74.2937 72.3155 93.9058 40.6494 126.852 37.368" stroke="#21242C" stroke-width="1.96888" stroke-linecap="round" stroke-linejoin="round"/>
<path d="M75.498 84.1276L83.2094 90.8545M79.5998 76.5802L87.4753 84.1276M85.0142 69.0328L92.7256 75.1035M90.9208 61.3215L98.3041 69.0328M96.8274 56.0711L104.211 62.4699M104.211 50.9849L111.594 56.8915M112.907 46.5549L118.486 52.1333M121.766 42.6172L126.853 48.1956" stroke="#21242C" stroke-width="1.96888" stroke-linecap="round" stroke-linejoin="round"/>
<path d="M139.65 89.4838C146.288 89.4838 151.668 84.1031 151.668 77.4655C151.668 70.828 146.288 65.4473 139.65 65.4473C133.013 65.4473 127.632 70.828 127.632 77.4655C127.632 84.1031 133.013 89.4838 139.65 89.4838Z" fill="white" stroke="#21242C" stroke-width="1.96888" stroke-linecap="round" stroke-linejoin="round"/>
<path d="M120.084 102.873C126.721 102.873 132.102 97.4917 132.102 90.8542C132.102 84.2167 126.721 78.8359 120.084 78.8359C113.446 78.8359 108.065 84.2167 108.065 90.8542C108.065 97.4917 113.446 102.873 120.084 102.873Z" fill="white" stroke="#21242C" stroke-width="1.96888" stroke-linecap="round" stroke-linejoin="round"/>
<path d="M124.964 97.9911C128.906 97.9911 132.101 94.7957 132.101 90.854C132.101 86.9122 128.906 83.7168 124.964 83.7168C121.023 83.7168 117.827 86.9122 117.827 90.854C117.827 94.7957 121.023 97.9911 124.964 97.9911Z" fill="#21242C"/>
<path d="M144.53 84.6025C148.472 84.6025 151.667 81.407 151.667 77.4653C151.667 73.5235 148.472 70.3281 144.53 70.3281C140.588 70.3281 137.393 73.5235 137.393 77.4653C137.393 81.407 140.588 84.6025 144.53 84.6025Z" fill="#21242C"/>
<path d="M122.749 108.41C122.257 115.301 129.642 118.255 134.071 115.957" stroke="#21242C" stroke-width="1.96888" stroke-linecap="round" stroke-linejoin="round"/>
<path d="M93.2966 25.6653C93.6154 22.4358 81.7115 18.6314 76.6025 21.8992C74.1588 23.4623 76.4998 26.0933 84.8614 27.3772C89.3729 28.0699 93.1075 27.5792 93.2966 25.6653Z" fill="white"/>
<path d="M104.901 88.1737C102.353 84.732 105.154 77.2728 111.326 76.3359" stroke="#21242C" stroke-width="1.96888" stroke-linecap="round" stroke-linejoin="round"/>
<path d="M132.073 63.416C133.38 59.3384 141.071 57.2574 145.435 61.7217" stroke="#21242C" stroke-width="1.96888" stroke-linecap="round" stroke-linejoin="round"/>
<path d="M162.277 41.2052C157.698 40.5776 153.478 43.7804 152.85 48.359C152.223 52.9375 155.426 57.1579 160.004 57.7855C164.583 58.4131 168.803 55.2102 169.431 50.6317C170.058 46.0531 166.856 41.8327 162.277 41.2052Z" fill="white" stroke="#21242C" stroke-width="1.96888" stroke-linecap="round"/>
<path d="M170.883 61.9566C169.087 61.7105 167.432 62.9665 167.186 64.762C166.94 66.5575 168.196 68.2126 169.992 68.4587C171.787 68.7048 173.442 67.4488 173.688 65.6532C173.934 63.8577 172.678 62.2027 170.883 61.9566Z" fill="white" stroke="#21242C" stroke-width="1.96888" stroke-linecap="round"/>
</svg>
