<svg width="45" height="45" viewBox="0 0 45 45" fill="none" xmlns="http://www.w3.org/2000/svg">
<path d="M17.4262 17.085L19.9331 22.0997L14.8603 24.6366L4.6875 21.2456L7.20562 13.6894L17.4262 17.085ZM27.5747 17.1309L25.0669 22.1456L30.1397 24.6825L40.3125 21.2906L37.7944 13.7344L27.5747 17.1309ZM15.2109 25.8778L20.6906 24.6881L21.8934 30.2316L16.0912 39.2494L9.39375 34.9397L15.2109 25.8778ZM18.5531 16.5L22.5178 20.4647L26.5284 16.4541V5.73094H18.5644L18.5531 16.5ZM29.8256 25.8975L24.3459 24.7088L23.1431 30.2513L28.9453 39.27L35.6428 34.9603L29.8256 25.8975Z" stroke="#2DCBC5" stroke-width="2" stroke-linecap="round" stroke-linejoin="round"/>
</svg>
