<svg width="269" height="105" viewBox="0 0 269 105" fill="none" xmlns="http://www.w3.org/2000/svg">
<g clip-path="url(#clip0_69_1579)">
<path opacity="0.997" fill-rule="evenodd" clip-rule="evenodd" d="M18.799 70.7506C24.3551 70.3947 28.8804 68.0661 32.3754 63.765C35.541 59.5157 36.719 54.7613 35.9098 49.5025C34.7904 43.8844 31.762 39.6498 26.8242 36.7993C22.3347 34.4453 17.6498 33.9601 12.7697 35.344C7.17076 37.2144 3.28289 40.8943 1.10606 46.3839C0.511481 48.0114 0.158038 49.6884 0.0457268 51.4152C0.00426997 50.6048 -0.00957668 49.7869 0.00414523 48.9619C0.110303 42.0349 2.8131 36.3588 8.11254 31.9343C13.0898 28.0769 18.7172 26.5523 24.9946 27.3603C31.3903 28.4262 36.4009 31.6211 40.0264 36.9449C43.4963 42.4361 44.439 48.3407 42.8539 54.6586C41.1952 60.4043 37.8063 64.8049 32.6872 67.8607C29.636 69.6076 26.351 70.5639 22.8324 70.7299C21.4881 70.7506 20.1435 70.7577 18.799 70.7506Z" fill="#2AB7C9"/>
<path fill-rule="evenodd" clip-rule="evenodd" d="M18.8006 70.7494C12.5356 70.7564 6.27066 70.7494 0.00573437 70.7286C-0.0358056 64.7092 -0.0496522 58.6866 -0.0358472 52.6614C0.00548488 52.2527 0.0332197 51.8368 0.0473159 51.414C0.159628 49.6871 0.513071 48.0101 1.10764 46.3826C3.28448 40.893 7.17235 37.2131 12.7713 35.3427C17.6514 33.9589 22.3363 34.444 26.8258 36.798C31.7636 39.6485 34.792 43.8831 35.9114 49.5012C36.7206 54.76 35.5425 59.5145 32.3769 63.7637C28.882 68.0649 24.3567 70.3934 18.8006 70.7494Z" fill="#FDD531"/>
<path opacity="0.99" fill-rule="evenodd" clip-rule="evenodd" d="M108.241 37.569C109.558 37.5621 110.875 37.569 112.192 37.5898C112.44 37.6438 112.613 37.7893 112.711 38.0264C112.766 41.6976 112.794 45.3705 112.795 49.0455C114.118 47.6663 115.733 46.8417 117.639 46.5714C119.599 46.2907 121.443 46.6234 123.169 47.5694C124.684 48.5869 125.689 49.9798 126.184 51.7483C126.417 52.55 126.556 53.3679 126.6 54.2016C126.628 58.5124 126.628 62.8227 126.6 67.1335C126.527 67.5106 126.299 67.7119 125.914 67.7364C124.694 67.7643 123.474 67.7643 122.254 67.7364C121.808 67.7194 121.565 67.4907 121.527 67.0503C121.513 63.0306 121.499 59.0114 121.485 54.9917C121.231 52.486 119.853 51.1412 117.348 50.9583C114.705 51.1408 113.187 52.5409 112.795 55.158C112.781 59.1361 112.767 63.1138 112.753 67.0919C112.696 67.5094 112.453 67.7243 112.025 67.7364C110.819 67.7643 109.614 67.7643 108.408 67.7364C108.002 67.7252 107.76 67.5243 107.68 67.1335C107.652 57.4728 107.652 47.8118 107.68 38.1512C107.764 37.8522 107.952 37.6581 108.241 37.569Z" fill="black"/>
<path opacity="0.991" fill-rule="evenodd" clip-rule="evenodd" d="M173.192 37.569C174.509 37.5621 175.826 37.569 177.142 37.5898C177.39 37.6438 177.564 37.7893 177.662 38.0264C177.71 39.1683 177.73 40.3118 177.724 41.4569C177.689 44.0004 177.689 46.544 177.724 49.0871C179.98 47.154 182.599 46.3015 185.583 46.5298C189.627 47.0084 192.517 49.0804 194.253 52.7463C195.294 55.2345 195.474 57.7851 194.793 60.3973C193.766 63.8914 191.555 66.2964 188.161 67.6117C185.261 68.5439 182.448 68.336 179.72 66.9879C178.719 66.442 177.839 65.7422 177.08 64.8881C176.846 65.6582 176.624 66.4345 176.414 67.2166C176.282 67.5152 176.053 67.6882 175.728 67.7364C174.925 67.7643 174.12 67.7643 173.317 67.7364C172.911 67.7252 172.669 67.5243 172.589 67.1335C172.579 57.4936 172.593 47.833 172.63 38.1512C172.7 37.8388 172.887 37.6447 173.192 37.569ZM183.296 51.0414C186.179 50.9749 188.266 52.2223 189.554 54.7838C190.6 57.4961 190.108 59.8871 188.078 61.9566C186.098 63.6361 183.881 64.0377 181.425 63.1624C178.945 62.0102 177.643 60.0625 177.516 57.3202C177.638 54.6831 178.872 52.7775 181.217 51.6028C181.884 51.2996 182.576 51.1125 183.296 51.0414Z" fill="black"/>
<path opacity="0.99" fill-rule="evenodd" clip-rule="evenodd" d="M55.5162 39.8971C56.8331 39.8902 58.15 39.8971 59.4664 39.9179C59.782 39.9978 59.9691 40.1988 60.0278 40.5209C60.0486 42.6552 60.0556 44.79 60.0486 46.9244C61.4648 46.9045 62.8786 46.9252 64.2899 46.9868C64.5119 47.0704 64.6433 47.2296 64.6849 47.465C64.7128 48.4908 64.7128 49.5162 64.6849 50.542C64.6113 50.7682 64.4658 50.9275 64.2483 51.0202C62.8503 51.0813 61.4507 51.1021 60.0486 51.0826C60.0415 54.7139 60.0486 58.3456 60.0694 61.9769C60.2373 63.3957 61.034 64.0261 62.4603 63.8689C62.9077 63.8111 63.3514 63.735 63.7909 63.6402C64.1905 63.6581 64.4329 63.866 64.5186 64.2639C64.7839 65.1662 65.0267 66.0744 65.2463 66.9875C65.2442 67.3638 65.0641 67.6133 64.7057 67.736C63.3472 68.1381 61.9609 68.2765 60.5475 68.1518C58.8677 68.0358 57.4468 67.3775 56.2854 66.1767C55.4488 65.1371 55.0056 63.945 54.9548 62.6007C54.934 58.7614 54.927 54.9218 54.934 51.0826C54.2962 51.0896 53.6587 51.0826 53.0213 51.0618C52.6637 50.9952 52.4628 50.7807 52.4184 50.4173C52.3905 49.4746 52.3905 48.5324 52.4184 47.5897C52.4587 47.2446 52.6458 47.03 52.9797 46.9452C53.6309 46.9244 54.2825 46.9173 54.934 46.9244C54.927 44.7759 54.934 42.6278 54.9548 40.4793C55.0251 40.1665 55.2122 39.9724 55.5162 39.8971Z" fill="black"/>
<path opacity="0.99" fill-rule="evenodd" clip-rule="evenodd" d="M259.309 39.8971C260.639 39.8902 261.97 39.8971 263.3 39.9179C263.654 40.0082 263.841 40.2369 263.862 40.604C263.883 42.711 263.89 44.8175 263.883 46.9244C265.299 46.9045 266.713 46.9252 268.124 46.9868C268.334 47.0999 268.465 47.2729 268.519 47.5066C268.547 48.5045 268.547 49.5025 268.519 50.5004C268.463 50.7499 268.318 50.9233 268.082 51.0202C266.684 51.0809 265.284 51.1017 263.883 51.0826C263.875 54.7555 263.883 58.4288 263.903 62.1017C263.999 62.9824 264.463 63.5574 265.296 63.8273C265.654 63.8901 266.015 63.9038 266.377 63.8689C266.789 63.8011 267.197 63.7246 267.604 63.6402C268.033 63.6527 268.282 63.8747 268.353 64.3055C268.615 65.2012 268.857 66.1022 269.08 67.0083C269.017 67.4915 268.74 67.7617 268.249 67.8191C266.952 68.1551 265.635 68.2661 264.298 68.1518C262.518 68.0171 261.055 67.2757 259.912 65.9272C259.233 64.9853 258.859 63.9321 258.789 62.767C258.768 58.872 258.761 54.9775 258.768 51.0826C258.144 51.0896 257.521 51.0826 256.897 51.0618C256.553 51.0231 256.338 50.836 256.252 50.5004C256.224 49.5025 256.224 48.5045 256.252 47.5066C256.317 47.2184 256.49 47.0313 256.772 46.9452C257.437 46.9244 258.103 46.9173 258.768 46.9244C258.761 44.7622 258.768 42.5999 258.789 40.4377C258.859 40.153 259.032 39.9728 259.309 39.8971Z" fill="black"/>
<path opacity="0.991" fill-rule="evenodd" clip-rule="evenodd" d="M74.8526 46.5099C77.1882 46.3269 79.3646 46.8188 81.3809 47.986C83.9747 49.7262 85.4783 52.1587 85.8925 55.2836C85.996 56.0453 86.0239 56.8075 85.9756 57.5705C85.8912 57.8487 85.7041 58.008 85.4143 58.0487C80.3967 58.0625 75.3794 58.0766 70.3618 58.0903C70.4433 59.8201 71.1223 61.2617 72.3993 62.4148C74.3124 63.7645 76.3774 64.0419 78.5949 63.2464C79.8166 62.7865 80.8699 62.0796 81.7551 61.1258C82.0844 60.9216 82.4034 60.9357 82.7115 61.1673C83.3959 61.9491 84.0962 62.7183 84.8114 63.4751C84.9619 63.7687 84.934 64.0456 84.7282 64.3067C81.6121 67.5493 77.8352 68.7481 73.3972 67.9035C69.5597 66.9214 67.044 64.5442 65.8502 60.7723C65.1121 57.9327 65.2784 55.1468 66.3492 52.4144C68.0661 48.8488 70.9007 46.8803 74.8526 46.5099ZM75.4763 50.7096C77.3329 50.5815 78.8228 51.2468 79.9463 52.7055C80.3031 53.2419 80.5597 53.824 80.7156 54.4519C77.3891 54.5072 74.0625 54.5072 70.736 54.4519C71.5207 52.1978 73.1008 50.9503 75.4763 50.7096Z" fill="black"/>
<path opacity="0.99" fill-rule="evenodd" clip-rule="evenodd" d="M96.682 46.5081C99.7915 46.2952 102.55 47.1613 104.957 49.1069C105.523 49.576 106.015 50.1094 106.433 50.7078C106.536 51.05 106.46 51.3477 106.204 51.6018C105.406 52.2713 104.616 52.9503 103.834 53.6393C103.523 53.9258 103.177 53.9811 102.794 53.8056C100.803 51.2143 98.253 50.4521 95.1435 51.5186C92.9284 52.5715 91.7018 54.325 91.4635 56.7787C91.3138 58.9646 92.0415 60.7872 93.6466 62.2467C95.6658 63.7274 97.8417 64.0047 100.175 63.0783C101.142 62.596 101.947 61.9169 102.587 61.0408C103.025 60.6724 103.455 60.6861 103.876 61.0824C104.598 61.7356 105.333 62.3731 106.079 62.9951C106.624 63.4604 106.631 63.9386 106.1 64.4297C104.096 66.6477 101.594 67.8885 98.5948 68.1513C95.4067 68.3912 92.5654 67.5317 90.0705 65.5732C87.8701 63.6463 86.6571 61.2138 86.4322 58.2756C86.2097 55.3263 86.9998 52.6925 88.8023 50.3751C90.3346 48.6092 92.2407 47.4378 94.5198 46.8615C95.24 46.7023 95.9606 46.5846 96.682 46.5081Z" fill="black"/>
<path opacity="0.992" fill-rule="evenodd" clip-rule="evenodd" d="M139.136 46.5086C140.918 46.3451 142.595 46.6849 144.168 47.5273C145.692 48.5261 146.711 49.9054 147.224 51.6647C147.498 52.5732 147.65 53.5017 147.681 54.4506C147.722 58.7211 147.709 62.9902 147.64 67.2577C147.529 67.5526 147.314 67.7118 146.995 67.7359C145.776 67.7638 144.556 67.7638 143.336 67.7359C142.955 67.723 142.713 67.5359 142.608 67.1746C142.595 63.169 142.58 59.1631 142.567 55.1575C142.503 53.8452 141.997 52.7433 141.049 51.8518C139.861 50.9977 138.559 50.7619 137.14 51.1449C135.353 51.6988 134.279 52.8976 133.918 54.7417C133.875 55.0452 133.847 55.35 133.835 55.6565C133.821 59.5099 133.807 63.3628 133.793 67.2162C133.686 67.5442 133.457 67.7176 133.107 67.7359C131.901 67.7638 130.695 67.7638 129.489 67.7359C129.1 67.7339 128.857 67.5467 128.762 67.1746C128.72 60.5606 128.734 53.9492 128.803 47.3402C128.9 47.1356 129.059 47.0038 129.281 46.9452C130.182 46.9173 131.083 46.9173 131.984 46.9452C132.288 46.9992 132.489 47.1722 132.587 47.4649C132.76 48.1028 132.934 48.7407 133.107 49.3777C134.8 47.7618 136.81 46.8055 139.136 46.5086Z" fill="black"/>
<path opacity="0.99" fill-rule="evenodd" clip-rule="evenodd" d="M158.927 46.5084C161.47 46.3196 163.854 46.8394 166.079 48.0677C169.277 50.0907 170.976 53.008 171.172 56.8206C171.321 60.1887 170.191 63.0371 167.783 65.3656C165.84 67.0364 163.581 67.9649 161.006 68.1516C158.197 68.3853 155.619 67.7337 153.271 66.1973C150.334 63.9951 148.851 61.0428 148.822 57.3404C148.824 53.969 150.086 51.183 152.606 48.9825C154.462 47.5251 156.569 46.7005 158.927 46.5084ZM159.467 51.0408C161.713 50.9135 163.536 51.7173 164.935 53.4525C166.174 55.4389 166.424 57.5454 165.684 59.7729C164.639 62.2216 162.775 63.5107 160.091 63.64C157.718 63.6221 155.923 62.6104 154.706 60.6045C153.79 58.7059 153.68 56.7653 154.373 54.7831C155.344 52.5477 157.042 51.3003 159.467 51.0408Z" fill="black"/>
<path opacity="0.991" fill-rule="evenodd" clip-rule="evenodd" d="M205.789 46.5098C208.373 46.3244 210.785 46.8716 213.024 48.1523C216.01 50.0808 217.652 52.8319 217.952 56.4062C218.187 59.4155 217.369 62.0904 215.498 64.4315C213.461 66.6785 210.918 67.9189 207.868 68.153C204.987 68.3963 202.354 67.7172 199.968 66.1155C197.322 64.1312 195.888 61.4771 195.664 58.1526C195.442 54.8798 196.44 52.0522 198.658 49.67C200.654 47.7747 203.031 46.7215 205.789 46.5098ZM206.288 51.0422C208.493 50.9083 210.288 51.6846 211.673 53.3708C212.919 55.2615 213.224 57.299 212.588 59.4833C211.604 62.1769 209.67 63.5632 206.787 63.6414C204.079 63.5678 202.201 62.2925 201.153 59.8159C200.444 57.7443 200.61 55.7484 201.652 53.8282C202.744 52.1491 204.289 51.2202 206.288 51.0422Z" fill="black"/>
<path opacity="0.991" fill-rule="evenodd" clip-rule="evenodd" d="M228.536 46.5087C231.575 46.2721 234.319 47.0414 236.769 48.8165C239.051 50.6818 240.36 53.0869 240.699 56.0309C241.036 59.0925 240.273 61.8369 238.412 64.264C236.463 66.5032 234.003 67.7856 231.031 68.1103C227.88 68.48 225.025 67.7457 222.465 65.9065C220.164 64.0703 218.841 61.6793 218.494 58.7337C218.128 55.5818 218.918 52.768 220.864 50.2926C222.914 48.0173 225.471 46.7561 228.536 46.5087ZM229.035 51.0411C231.541 50.9047 233.475 51.8748 234.836 53.9518C235.776 55.8009 235.929 57.7137 235.293 59.6901C234.532 61.6681 233.125 62.9226 231.073 63.4532C229.065 63.889 227.249 63.4869 225.625 62.2473C224.017 60.7346 223.317 58.8701 223.526 56.6546C223.952 53.3846 225.788 51.5135 229.035 51.0411Z" fill="black"/>
<path opacity="0.99" fill-rule="evenodd" clip-rule="evenodd" d="M247.916 46.5078C250.274 46.4109 252.561 46.7644 254.777 47.5681C254.944 47.7004 255.027 47.8738 255.026 48.0879C254.744 49.1354 254.432 50.1749 254.091 51.2065C253.884 51.6223 253.558 51.7542 253.114 51.6016C251.766 51.0897 250.373 50.7778 248.935 50.666C248.219 50.6352 247.56 50.8086 246.96 51.1857C246.263 51.9691 246.304 52.7176 247.084 53.4311C247.416 53.7081 247.777 53.9438 248.166 54.138C249.576 54.8017 250.976 55.4811 252.365 56.1755C253.319 56.6982 254.172 57.3564 254.923 58.1506C256.053 59.5677 256.455 61.1753 256.128 62.9741C255.861 64.696 254.994 66.0195 253.53 66.9451C252.253 67.6628 250.88 68.0649 249.413 68.151C246.844 68.2716 244.336 67.9389 241.887 67.153C241.482 66.9876 241.336 66.6894 241.45 66.259C241.8 65.2237 242.174 64.1983 242.573 63.182C242.777 62.9866 243.02 62.9242 243.3 62.9949C244.919 63.634 246.596 64.0012 248.332 64.0968C249.002 64.1168 249.64 63.985 250.245 63.7018C250.904 63.2357 251.146 62.6049 250.972 61.8098C250.791 61.4485 250.535 61.1503 250.203 60.9158C249.857 60.6734 249.496 60.4514 249.122 60.2505C247.813 59.6172 246.524 58.9519 245.255 58.2546C244.237 57.6666 243.329 56.939 242.531 56.0716C241.462 54.62 241.143 53.012 241.575 51.2481C242.076 49.3187 243.248 47.9673 245.088 47.1939C246.005 46.8334 246.947 46.6047 247.916 46.5078Z" fill="black"/>
<path opacity="0.02" fill-rule="evenodd" clip-rule="evenodd" d="M0.00571103 48.9609C-0.00801088 49.7859 0.00583577 50.6038 0.0472926 51.4142C0.0331964 51.8371 0.00546154 52.2529 -0.0358705 52.6617C-0.049634 51.4209 -0.0357873 50.1876 0.00571103 48.9609Z" fill="#2DCBC5"/>
</g>
<defs>
<clipPath id="clip0_69_1579">
<rect width="269" height="104.028" fill="white"/>
</clipPath>
</defs>
</svg>
