<svg width="69" height="69" viewBox="0 0 69 69" fill="none" xmlns="http://www.w3.org/2000/svg">
<rect width="68.2547" height="68.2547" rx="34.1273" fill="#4EC3D3"/>
<path d="M44.0474 43.3863C44.0474 42.8601 43.8383 42.3554 43.4663 41.9833C43.0942 41.6112 42.5895 41.4022 42.0633 41.4022C41.5371 41.4022 41.0324 41.6112 40.6604 41.9833C40.2883 42.3554 40.0792 42.8601 40.0792 43.3863C40.0792 43.9125 40.2883 44.4171 40.6604 44.7892C41.0324 45.1613 41.5371 45.3703 42.0633 45.3703C42.5895 45.3703 43.0942 45.1613 43.4663 44.7892C43.8383 44.4171 44.0474 43.9125 44.0474 43.3863ZM42.0633 39.4181C42.875 39.4184 43.667 39.6675 44.3327 40.1319C44.9984 40.5963 45.5056 41.2537 45.786 42.0154C46.0664 42.7771 46.1065 43.6065 45.9009 44.3916C45.6952 45.1768 45.2537 45.8801 44.636 46.4065C44.0182 46.933 43.2538 47.2573 42.446 47.3358C41.6381 47.4143 40.8256 47.2432 40.118 46.8455C39.4105 46.4479 38.8419 45.8428 38.4889 45.1119C38.1359 44.381 38.0156 43.5594 38.1441 42.758L33.7024 40.0623C32.8651 40.6335 31.8409 40.8626 30.8401 40.7026C29.8392 40.5426 28.9374 40.0057 28.3199 39.202C27.7023 38.3983 27.4156 37.3887 27.5188 36.3804C27.6219 35.3721 28.107 34.4414 28.8745 33.7794L26.4011 28.8311C26.3323 28.8347 26.2622 28.8364 26.1908 28.8364C25.2351 28.8359 24.3117 28.4905 23.5903 27.8637C22.8689 27.2368 22.398 26.3707 22.264 25.4245C22.1301 24.4783 22.3421 23.5155 22.8612 22.7131C23.3802 21.9106 24.1714 21.3225 25.0894 21.0567C26.0074 20.7909 26.9904 20.8653 27.8579 21.2663C28.7254 21.6673 29.419 22.3678 29.8113 23.2393C30.2037 24.1107 30.2683 25.0944 29.9934 26.0097C29.7185 26.925 29.1226 27.7103 28.315 28.2214L30.6496 32.8919C31.3808 32.7347 32.1414 32.7874 32.8439 33.0438C33.5465 33.3002 34.1622 33.7499 34.6202 34.3411C35.0783 34.9322 35.3599 35.6408 35.4327 36.3851C35.5055 37.1294 35.3665 37.8791 35.0318 38.5478L38.9496 40.926C39.3211 40.4559 39.7942 40.076 40.3335 39.8149C40.8728 39.5537 41.4641 39.4181 42.0633 39.4181ZM33.4657 36.7727C33.4657 36.2465 33.2566 35.7418 32.8846 35.3698C32.5125 34.9977 32.0078 34.7886 31.4816 34.7886C30.9554 34.7886 30.4507 34.9977 30.0787 35.3698C29.7066 35.7418 29.4975 36.2465 29.4975 36.7727C29.4975 37.2989 29.7066 37.8036 30.0787 38.1757C30.4507 38.5477 30.9554 38.7568 31.4816 38.7568C32.0078 38.7568 32.5125 38.5477 32.8846 38.1757C33.2566 37.8036 33.4657 37.2989 33.4657 36.7727ZM28.1748 24.8683C28.1748 24.3421 27.9658 23.8374 27.5937 23.4653C27.2216 23.0933 26.717 22.8842 26.1908 22.8842C25.6645 22.8842 25.1599 23.0933 24.7878 23.4653C24.4157 23.8374 24.2067 24.3421 24.2067 24.8683C24.2067 25.3945 24.4157 25.8992 24.7878 26.2712C25.1599 26.6433 25.6645 26.8524 26.1908 26.8524C26.717 26.8524 27.2216 26.6433 27.5937 26.2712C27.9658 25.8992 28.1748 25.3945 28.1748 24.8683Z" fill="white"/>
</svg>
