<svg width="73" height="73" viewBox="0 0 73 73" fill="none" xmlns="http://www.w3.org/2000/svg">
<rect width="72.5096" height="72.5096" rx="36.2548" fill="#4EC3D3"/>
<path d="M22.7548 28.7549V25.7549C22.7548 24.9592 23.0708 24.1962 23.6334 23.6336C24.196 23.071 24.9591 22.7549 25.7548 22.7549H28.7548M43.7548 22.7549H46.7548C47.5504 22.7549 48.3135 23.071 48.8761 23.6336C49.4387 24.1962 49.7548 24.9592 49.7548 25.7549V28.7549M49.7548 43.7549V46.7549C49.7548 47.5505 49.4387 48.3136 48.8761 48.8762C48.3135 49.4388 47.5504 49.7549 46.7548 49.7549H43.7548M28.7548 49.7549H25.7548C24.9591 49.7549 24.196 49.4388 23.6334 48.8762C23.0708 48.3136 22.7548 47.5505 22.7548 46.7549V43.7549M30.2548 39.2549C30.2548 39.2549 32.5048 42.2549 36.2548 42.2549C40.0048 42.2549 42.2548 39.2549 42.2548 39.2549M31.7548 31.7549H31.7698M40.7548 31.7549H40.7698" stroke="white" stroke-width="3" stroke-linecap="round" stroke-linejoin="round"/>
</svg>
