<svg width="48" height="48" viewBox="0 0 48 48" fill="none" xmlns="http://www.w3.org/2000/svg">
<path d="M0 8C0 3.58172 3.58172 0 8 0H40C44.4183 0 48 3.58172 48 8V40C48 44.4183 44.4183 48 40 48H8C3.58172 48 0 44.4183 0 40V8Z" fill="url(#paint0_linear_0_542)"/>
<path d="M27 14H18C17.4696 14 16.9609 14.2107 16.5858 14.5858C16.2107 14.9609 16 15.4696 16 16V32C16 32.5304 16.2107 33.0391 16.5858 33.4142C16.9609 33.7893 17.4696 34 18 34H30C30.5304 34 31.0391 33.7893 31.4142 33.4142C31.7893 33.0391 32 32.5304 32 32V19L27 14Z" stroke="#2AB7CA" stroke-width="2" stroke-linecap="round" stroke-linejoin="round"/>
<path d="M26 14V18C26 18.5304 26.2107 19.0391 26.5858 19.4142C26.9609 19.7893 27.4696 20 28 20H32" stroke="#2AB7CA" stroke-width="2" stroke-linecap="round" stroke-linejoin="round"/>
<path d="M22 21H20" stroke="#2AB7CA" stroke-width="2" stroke-linecap="round" stroke-linejoin="round"/>
<path d="M28 25H20" stroke="#2AB7CA" stroke-width="2" stroke-linecap="round" stroke-linejoin="round"/>
<path d="M28 29H20" stroke="#2AB7CA" stroke-width="2" stroke-linecap="round" stroke-linejoin="round"/>
<defs>
<linearGradient id="paint0_linear_0_542" x1="0" y1="0" x2="48" y2="48" gradientUnits="userSpaceOnUse">
<stop stop-color="#2AB7CA" stop-opacity="0.1"/>
<stop offset="1" stop-color="#FDD531" stop-opacity="0.1"/>
</linearGradient>
</defs>
</svg>
