<svg width="73" height="73" viewBox="0 0 73 73" fill="none" xmlns="http://www.w3.org/2000/svg">
<rect width="72.5096" height="72.5096" rx="36.2548" fill="#4EC3D3"/>
<path d="M36.2548 40.7548L31.7548 36.2548M36.2548 40.7548C38.35 39.9579 40.3601 38.9529 42.2548 37.7548M36.2548 40.7548V48.2548C36.2548 48.2548 40.7998 47.4298 42.2548 45.2548C43.8748 42.8248 42.2548 37.7548 42.2548 37.7548M31.7548 36.2548C32.553 34.1839 33.5581 32.1989 34.7548 30.3298C36.5025 27.5352 38.9362 25.2343 41.8243 23.6459C44.7123 22.0575 47.9588 21.2343 51.2548 21.2548C51.2548 25.3348 50.0848 32.5048 42.2548 37.7548M31.7548 36.2548H24.2548C24.2548 36.2548 25.0798 31.7098 27.2548 30.2548C29.6848 28.6348 34.7548 30.2548 34.7548 30.2548M25.0048 43.0048C22.7548 44.8948 22.0048 50.5048 22.0048 50.5048C22.0048 50.5048 27.6148 49.7548 29.5048 47.5048C30.5698 46.2448 30.5548 44.3098 29.3698 43.1398C28.7867 42.5833 28.0187 42.2617 27.2131 42.2368C26.4075 42.2119 25.6211 42.4854 25.0048 43.0048Z" stroke="white" stroke-width="3" stroke-linecap="round" stroke-linejoin="round"/>
</svg>
