<svg width="48" height="48" viewBox="0 0 48 48" fill="none" xmlns="http://www.w3.org/2000/svg">
<path d="M0 8C0 3.58172 3.58172 0 8 0H40C44.4183 0 48 3.58172 48 8V40C48 44.4183 44.4183 48 40 48H8C3.58172 48 0 44.4183 0 40V8Z" fill="url(#paint0_linear_0_600)"/>
<path d="M16.5 28.5001C15 29.7601 14.5 33.5001 14.5 33.5001C14.5 33.5001 18.24 33.0001 19.5 31.5001C20.21 30.6601 20.2 29.3701 19.41 28.5901C19.0213 28.2191 18.5093 28.0047 17.9722 27.9881C17.4352 27.9715 16.9109 28.1538 16.5 28.5001Z" stroke="#2AB7CA" stroke-width="2" stroke-linecap="round" stroke-linejoin="round"/>
<path d="M24 27L21 24C21.5321 22.6194 22.2022 21.2961 23 20.05C24.1652 18.187 25.7876 16.6531 27.713 15.5941C29.6384 14.5351 31.8027 13.9864 34 14C34 16.72 33.22 21.5 28 25C26.7369 25.7987 25.3968 26.4687 24 27Z" stroke="#2AB7CA" stroke-width="2" stroke-linecap="round" stroke-linejoin="round"/>
<path d="M21 24H16C16 24 16.55 20.97 18 20C19.62 18.92 23 20 23 20" stroke="#2AB7CA" stroke-width="2" stroke-linecap="round" stroke-linejoin="round"/>
<path d="M24 27V32C24 32 27.03 31.45 28 30C29.08 28.38 28 25 28 25" stroke="#2AB7CA" stroke-width="2" stroke-linecap="round" stroke-linejoin="round"/>
<defs>
<linearGradient id="paint0_linear_0_600" x1="0" y1="0" x2="48" y2="48" gradientUnits="userSpaceOnUse">
<stop stop-color="#2AB7CA" stop-opacity="0.1"/>
<stop offset="1" stop-color="#FDD531" stop-opacity="0.1"/>
</linearGradient>
</defs>
</svg>
