<svg width="307" height="116" viewBox="0 0 307 116" fill="none" xmlns="http://www.w3.org/2000/svg">
<path d="M305.928 52.2088C306.189 51.8214 306.086 51.2962 305.698 51.0358L299.386 46.7911C298.998 46.5306 298.473 46.6335 298.213 47.0209C297.952 47.4083 298.055 47.9334 298.442 48.1939L304.054 51.9669L300.281 57.5782C300.02 57.9656 300.123 58.4907 300.51 58.7512C300.898 59.0117 301.423 58.9088 301.683 58.5214L305.928 52.2088ZM0.114702 114.051L1.0056e-05 114.888C23.6887 118.132 52.4216 108.453 79.0333 93.6651C105.672 78.8617 130.342 58.851 145.946 41.215C153.738 32.4078 159.325 24.1304 161.73 17.344C162.933 13.9499 163.369 10.8512 162.814 8.21551C162.25 5.53824 160.679 3.4137 158.049 2.00382C155.454 0.613108 151.865 -0.0658455 147.243 0.00521157C142.612 0.0764178 136.879 0.902077 129.944 2.58396C116.074 5.94772 97.2993 12.7607 72.7475 23.9513L73.098 24.7204L73.4486 25.4895C97.9547 14.3197 116.62 7.55478 130.342 4.22678C137.204 2.56278 142.805 1.7641 147.269 1.69546C151.743 1.62667 155.009 2.29237 157.25 3.49376C159.456 4.67598 160.702 6.391 161.16 8.5637C161.626 10.778 161.285 13.5396 160.137 16.7793C157.84 23.2603 152.422 31.3439 144.68 40.0948C129.214 57.5748 104.699 77.4687 78.2121 92.1875C51.6984 106.921 23.3665 116.382 0.229395 113.213L0.114702 114.051ZM73.098 24.7204L72.7475 23.9513C48.2161 35.1327 33.0924 44.0343 25.524 51.0657C21.7567 54.5656 19.7115 57.7374 19.4865 60.6201C19.2529 63.6134 20.9861 65.9915 23.9707 67.8208C26.9405 69.6411 31.2955 71.0238 36.7159 72.0587C42.1524 73.0967 48.7301 73.7973 56.1935 74.2152C71.1211 75.0512 89.6592 74.76 109.83 73.7474C190.501 69.6973 297.631 54.0862 305.389 52.5666L305.227 51.7372L305.064 50.9077C297.388 52.4114 190.338 68.0129 109.745 72.0591C89.6001 73.0704 71.1295 73.3586 56.288 72.5274C48.8669 72.1118 42.3698 71.4172 37.033 70.3983C31.6801 69.3762 27.5632 68.0401 24.8541 66.3796C22.1598 64.7281 21.007 62.8634 21.1718 60.7516C21.3453 58.5293 22.9829 55.7338 26.6746 52.3041C34.024 45.4761 48.922 36.6687 73.4486 25.4895L73.098 24.7204Z" fill="url(#paint0_linear_19_462)"/>
<defs>
<linearGradient id="paint0_linear_19_462" x1="-21.8751" y1="70.596" x2="279.441" y2="44.6965" gradientUnits="userSpaceOnUse">
<stop stop-color="white" stop-opacity="0"/>
<stop offset="1" stop-color="white"/>
</linearGradient>
</defs>
</svg>
