<svg width="189" height="31" viewBox="0 0 189 31" fill="none" xmlns="http://www.w3.org/2000/svg">
<path opacity="0.997" fill-rule="evenodd" clip-rule="evenodd" d="M11.6559 28.7917C15.0935 28.5715 17.8933 27.1308 20.0557 24.4696C22.0142 21.8406 22.7431 18.899 22.2424 15.6454C21.5499 12.1695 19.6762 9.54951 16.6212 7.7859C13.8435 6.32944 10.9449 6.02929 7.92556 6.88547C4.4615 8.04268 2.05606 10.3195 0.709247 13.7159C0.341382 14.7228 0.122706 15.7604 0.053218 16.8288C0.0275686 16.3274 0.0190016 15.8214 0.0274914 15.3109C0.0931714 11.0251 1.7654 7.51336 5.04418 4.77589C8.12363 2.38934 11.6053 1.44602 15.4892 1.94596C19.4462 2.60544 22.5463 4.58209 24.7894 7.87595C26.9362 11.2734 27.5195 14.9266 26.5388 18.8355C25.5125 22.3904 23.4158 25.113 20.2486 27.0037C18.3608 28.0845 16.3284 28.6762 14.1514 28.7788C13.3197 28.7917 12.4878 28.7961 11.6559 28.7917Z" fill="#2AB7C9"/>
<path fill-rule="evenodd" clip-rule="evenodd" d="M11.6574 28.7912C7.7812 28.7956 3.90505 28.7912 0.0289244 28.7784C0.00322347 25.0542 -0.00534349 21.3279 0.00319775 17.6001C0.02877 17.3473 0.0459296 17.09 0.054651 16.8283C0.124139 15.7599 0.342815 14.7224 0.71068 13.7154C2.05749 10.319 4.46293 8.04222 7.92699 6.88501C10.9463 6.02883 13.8449 6.32898 16.6226 7.78545C19.6776 9.54906 21.5513 12.169 22.2439 15.6449C22.7445 18.8986 22.0157 21.8401 20.0571 24.4692C17.8948 27.1303 15.0949 28.571 11.6574 28.7912Z" fill="#FDD531"/>
<g clip-path="url(#clip0_729_1081)">
<path opacity="0.99" fill-rule="evenodd" clip-rule="evenodd" d="M76.0795 7.31433C77.004 7.30945 77.9285 7.31433 78.8527 7.32892C79.027 7.36682 79.1487 7.46899 79.2176 7.63544C79.2561 10.2128 79.2757 12.7913 79.276 15.3712C80.2051 14.4029 81.3389 13.8241 82.6768 13.6343C84.0532 13.4373 85.3475 13.6708 86.5593 14.3349C87.623 15.0492 88.3286 16.0272 88.6757 17.2687C88.8392 17.8315 88.9367 18.4057 88.9676 18.991C88.9872 22.0173 88.9872 25.0433 88.9676 28.0696C88.9168 28.3344 88.7562 28.4756 88.4859 28.4929C87.6297 28.5124 86.7733 28.5124 85.9171 28.4929C85.6035 28.4809 85.4334 28.3203 85.4062 28.0112C85.3966 25.1892 85.3867 22.3676 85.377 19.5456C85.199 17.7865 84.231 16.8425 82.4725 16.714C80.617 16.8422 79.5515 17.8251 79.276 19.6624C79.2663 22.4552 79.2564 25.2476 79.2468 28.0404C79.2065 28.3335 79.0363 28.4844 78.7359 28.4929C77.8894 28.5124 77.0428 28.5124 76.1963 28.4929C75.9116 28.485 75.7414 28.344 75.6854 28.0696C75.6658 21.2875 75.6658 14.5051 75.6854 7.72301C75.7447 7.51312 75.876 7.37689 76.0795 7.31433Z" fill="white"/>
<path opacity="0.991" fill-rule="evenodd" clip-rule="evenodd" d="M121.682 7.31432C122.606 7.30944 123.531 7.31432 124.455 7.32891C124.629 7.3668 124.751 7.46897 124.82 7.63543C124.854 8.43706 124.868 9.23983 124.864 10.0437C124.839 11.8294 124.839 13.615 124.864 15.4004C126.447 14.0433 128.286 13.4449 130.381 13.6051C133.22 13.9411 135.249 15.3957 136.467 17.9693C137.198 19.7161 137.325 21.5067 136.847 23.3405C136.126 25.7935 134.574 27.4819 132.191 28.4053C130.155 29.0598 128.18 28.9138 126.265 27.9674C125.562 27.5841 124.944 27.0928 124.411 26.4932C124.247 27.0339 124.091 27.5789 123.944 28.128C123.851 28.3376 123.691 28.459 123.463 28.4929C122.898 28.5124 122.334 28.5124 121.769 28.4929C121.485 28.485 121.315 28.344 121.259 28.0696C121.252 21.3021 121.262 14.52 121.288 7.723C121.337 7.50368 121.468 7.36745 121.682 7.31432ZM128.775 16.7724C130.8 16.7257 132.264 17.6015 133.169 19.3997C133.903 21.3038 133.557 22.9823 132.133 24.4352C130.743 25.6143 129.186 25.8963 127.462 25.2818C125.721 24.4729 124.807 23.1055 124.718 21.1803C124.803 19.329 125.669 17.9912 127.316 17.1665C127.784 16.9537 128.27 16.8223 128.775 16.7724Z" fill="white"/>
<path opacity="0.99" fill-rule="evenodd" clip-rule="evenodd" d="M39.0613 8.94909C39.9858 8.94422 40.9103 8.94909 41.8345 8.96369C42.056 9.01977 42.1874 9.16085 42.2286 9.38697C42.2432 10.8854 42.2481 12.3841 42.2432 13.8825C43.2374 13.8685 44.2299 13.8831 45.2207 13.9263C45.3766 13.9849 45.4688 14.0967 45.498 14.262C45.5176 14.9821 45.5176 15.702 45.498 16.4222C45.4464 16.581 45.3442 16.6928 45.1915 16.7579C44.2101 16.8008 43.2275 16.8154 42.2432 16.8016C42.2382 19.351 42.2432 21.9006 42.2578 24.4499C42.3757 25.4459 42.935 25.8884 43.9363 25.7781C44.2504 25.7375 44.5619 25.6841 44.8704 25.6175C45.1509 25.6301 45.3211 25.776 45.3813 26.0554C45.5675 26.6889 45.738 27.3264 45.8921 27.9675C45.8907 28.2316 45.7643 28.4068 45.5126 28.4929C44.5589 28.7752 43.5857 28.8724 42.5935 28.7848C41.4141 28.7034 40.4166 28.2413 39.6013 27.3982C39.014 26.6684 38.7028 25.8315 38.6672 24.8877C38.6526 22.1925 38.6476 19.4969 38.6526 16.8016C38.2048 16.8066 37.7573 16.8016 37.3098 16.7871C37.0587 16.7403 36.9177 16.5897 36.8865 16.3346C36.8669 15.6728 36.8669 15.0113 36.8865 14.3495C36.9148 14.1073 37.0462 13.9566 37.2806 13.8971C37.7377 13.8825 38.1952 13.8775 38.6526 13.8825C38.6476 12.3742 38.6526 10.8661 38.6672 9.35778C38.7165 9.1382 38.8479 9.00196 39.0613 8.94909Z" fill="white"/>
<path opacity="0.99" fill-rule="evenodd" clip-rule="evenodd" d="M182.136 8.94813C183.07 8.94325 184.004 8.94813 184.938 8.96272C185.186 9.0261 185.318 9.18665 185.332 9.44439C185.347 10.9235 185.352 12.4024 185.347 13.8815C186.341 13.8675 187.334 13.8821 188.324 13.9253C188.472 14.0047 188.564 14.1261 188.602 14.2902C188.621 14.9908 188.621 15.6914 188.602 16.392C188.562 16.5671 188.46 16.6889 188.295 16.7569C187.313 16.7995 186.331 16.8141 185.347 16.8007C185.342 19.3792 185.347 21.958 185.361 24.5365C185.429 25.1547 185.755 25.5585 186.339 25.7479C186.591 25.792 186.844 25.8016 187.098 25.7771C187.387 25.7295 187.674 25.6758 187.959 25.6166C188.26 25.6253 188.436 25.7812 188.485 26.0836C188.669 26.7124 188.839 27.345 188.996 27.9811C188.951 28.3203 188.757 28.51 188.412 28.5503C187.502 28.7862 186.577 28.8641 185.639 28.7839C184.389 28.6893 183.362 28.1688 182.559 27.2221C182.083 26.5609 181.82 25.8215 181.771 25.0035C181.756 22.2692 181.751 19.5351 181.756 16.8007C181.318 16.8056 180.88 16.8007 180.443 16.7861C180.201 16.7589 180.05 16.6276 179.99 16.392C179.971 15.6914 179.971 14.9908 179.99 14.2902C180.035 14.0879 180.157 13.9565 180.355 13.8961C180.822 13.8815 181.289 13.8766 181.756 13.8815C181.751 12.3636 181.756 10.8456 181.771 9.32762C181.82 9.12775 181.942 9.00126 182.136 8.94813Z" fill="white"/>
<path opacity="0.991" fill-rule="evenodd" clip-rule="evenodd" d="M52.6458 13.5897C54.2855 13.4612 55.8134 13.8066 57.2289 14.626C59.0499 15.8477 60.1054 17.5554 60.3962 19.7491C60.4689 20.2839 60.4884 20.819 60.4546 21.3547C60.3953 21.55 60.2639 21.6618 60.0605 21.6904C56.5379 21.7 53.0157 21.7099 49.4931 21.7196C49.5503 22.9339 50.027 23.946 50.9235 24.7555C52.2666 25.703 53.7163 25.8978 55.273 25.3393C56.1307 25.0165 56.8701 24.5202 57.4916 23.8505C57.7228 23.7072 57.9467 23.7171 58.163 23.8797C58.6435 24.4285 59.1351 24.9686 59.6372 25.4999C59.7429 25.706 59.7233 25.9004 59.5788 26.0837C57.3912 28.3601 54.7397 29.2017 51.6241 28.6088C48.93 27.9193 47.1639 26.2504 46.3258 23.6024C45.8077 21.6089 45.9244 19.6531 46.6761 17.7349C47.8814 15.2317 49.8714 13.8498 52.6458 13.5897ZM53.0837 16.538C54.3871 16.4481 55.433 16.9152 56.2218 17.9392C56.4722 18.3158 56.6524 18.7245 56.7618 19.1653C54.4265 19.2041 52.0912 19.2041 49.7558 19.1653C50.3067 17.5828 51.416 16.7071 53.0837 16.538Z" fill="white"/>
<path opacity="0.99" fill-rule="evenodd" clip-rule="evenodd" d="M67.9781 13.5905C70.161 13.441 72.0973 14.0491 73.7872 15.415C74.1848 15.7442 74.5301 16.1188 74.8235 16.5388C74.8959 16.7791 74.8425 16.9881 74.663 17.1665C74.1028 17.6364 73.5481 18.1131 72.999 18.5968C72.781 18.798 72.5378 18.8368 72.2692 18.7136C70.8713 16.8944 69.0809 16.3593 66.898 17.1081C65.3429 17.8472 64.4818 19.0782 64.3145 20.8008C64.2094 22.3354 64.7203 23.6149 65.8471 24.6395C67.2646 25.679 68.7922 25.8737 70.4302 25.2233C71.1095 24.8847 71.674 24.408 72.1233 23.793C72.4313 23.5343 72.7328 23.544 73.0282 23.8221C73.5353 24.2808 74.0511 24.7283 74.5754 25.165C74.9575 25.4916 74.9625 25.8273 74.59 26.1721C73.1832 27.7292 71.4268 28.6002 69.3209 28.7847C67.0828 28.9532 65.0881 28.3498 63.3366 26.9748C61.7918 25.6221 60.9403 23.9144 60.7823 21.8517C60.6262 19.7811 61.1808 17.9321 62.4463 16.3053C63.522 15.0655 64.8601 14.2432 66.4601 13.8386C66.9657 13.7268 67.4716 13.6442 67.9781 13.5905Z" fill="white"/>
<path opacity="0.992" fill-rule="evenodd" clip-rule="evenodd" d="M97.777 13.5904C99.0279 13.4757 100.205 13.7142 101.309 14.3056C102.379 15.0068 103.095 15.9751 103.455 17.2102C103.647 17.848 103.754 18.4999 103.776 19.166C103.805 22.164 103.795 25.1611 103.747 28.1571C103.669 28.364 103.518 28.4759 103.294 28.4928C102.438 28.5123 101.582 28.5123 100.725 28.4928C100.458 28.4837 100.288 28.3524 100.215 28.0987C100.205 25.2867 100.195 22.4743 100.185 19.6623C100.141 18.741 99.7854 17.9674 99.1199 17.3416C98.2861 16.742 97.3716 16.5765 96.3758 16.8453C95.1212 17.2341 94.3672 18.0757 94.1135 19.3704C94.0837 19.5835 94.0642 19.7975 94.0551 20.0126C94.0455 22.7178 94.0355 25.4227 94.0259 28.1279C93.9509 28.3582 93.7903 28.4799 93.5443 28.4928C92.6977 28.5123 91.8511 28.5123 91.0046 28.4928C90.7311 28.4913 90.5609 28.36 90.4937 28.0987C90.4645 23.4555 90.4745 18.814 90.5229 14.1743C90.5909 14.0307 90.7027 13.9381 90.8586 13.897C91.4912 13.8774 92.1235 13.8774 92.7561 13.897C92.9692 13.9349 93.1102 14.0563 93.1794 14.2619C93.3011 14.7097 93.4228 15.1575 93.5443 15.6047C94.7332 14.4703 96.1441 13.7989 97.777 13.5904Z" fill="white"/>
<path opacity="0.99" fill-rule="evenodd" clip-rule="evenodd" d="M111.665 13.59C113.45 13.4574 115.124 13.8223 116.686 14.6846C118.931 16.1048 120.123 18.1529 120.262 20.8295C120.366 23.194 119.573 25.1936 117.882 26.8284C116.518 28.0013 114.932 28.6531 113.124 28.7842C111.153 28.9483 109.343 28.4908 107.695 27.4122C105.632 25.8662 104.591 23.7936 104.571 21.1944C104.573 18.8275 105.458 16.8717 107.227 15.3269C108.531 14.3037 110.009 13.7248 111.665 13.59ZM112.044 16.7718C113.621 16.6825 114.901 17.2468 115.883 18.465C116.753 19.8594 116.928 21.3383 116.408 22.9021C115.675 24.6212 114.366 25.5261 112.482 25.6169C110.816 25.6044 109.556 24.8941 108.702 23.4859C108.059 22.153 107.981 20.7907 108.468 19.3991C109.15 17.8298 110.342 16.954 112.044 16.7718Z" fill="white"/>
<path opacity="0.991" fill-rule="evenodd" clip-rule="evenodd" d="M144.575 13.5892C146.389 13.459 148.082 13.8431 149.655 14.7422C151.751 16.0962 152.904 18.0275 153.114 20.5368C153.279 22.6494 152.705 24.5273 151.392 26.1708C149.961 27.7483 148.176 28.6191 146.035 28.7834C144.013 28.9542 142.164 28.4775 140.489 27.353C138.631 25.96 137.624 24.0967 137.467 21.7628C137.312 19.4652 138.012 17.4801 139.569 15.8077C140.97 14.4772 142.639 13.7378 144.575 13.5892ZM144.926 16.7711C146.473 16.6771 147.734 17.2221 148.706 18.4058C149.581 19.7331 149.795 21.1635 149.348 22.697C148.658 24.588 147.3 25.5613 145.276 25.6161C143.375 25.5645 142.057 24.6692 141.321 22.9305C140.823 21.4762 140.94 20.075 141.671 18.7269C142.437 17.5482 143.522 16.896 144.926 16.7711Z" fill="white"/>
<path opacity="0.991" fill-rule="evenodd" clip-rule="evenodd" d="M160.543 13.5918C162.676 13.4257 164.603 13.9657 166.323 15.2119C167.925 16.5215 168.844 18.2099 169.082 20.2767C169.318 22.4261 168.783 24.3527 167.476 26.0566C166.108 27.6286 164.381 28.5289 162.295 28.7569C160.083 29.0164 158.078 28.5009 156.281 27.2097C154.666 25.9206 153.737 24.2421 153.493 22.1741C153.236 19.9614 153.791 17.986 155.157 16.2482C156.596 14.6509 158.391 13.7655 160.543 13.5918ZM160.894 16.7737C162.653 16.6779 164.01 17.359 164.966 18.8171C165.626 20.1153 165.733 21.4581 165.287 22.8456C164.752 24.2342 163.765 25.1149 162.324 25.4874C160.914 25.7933 159.64 25.511 158.5 24.6408C157.37 23.5788 156.879 22.2699 157.026 20.7146C157.325 18.4189 158.614 17.1053 160.894 16.7737Z" fill="white"/>
<path opacity="0.99" fill-rule="evenodd" clip-rule="evenodd" d="M174.142 13.5901C175.797 13.5221 177.403 13.7702 178.958 14.3345C179.075 14.4273 179.134 14.549 179.134 14.6994C178.935 15.4347 178.716 16.1645 178.477 16.8887C178.331 17.1807 178.102 17.2732 177.791 17.1661C176.844 16.8067 175.866 16.5878 174.857 16.5092C174.354 16.4876 173.892 16.6094 173.47 16.8741C172.981 17.4241 173.01 17.9496 173.558 18.4505C173.791 18.6449 174.044 18.8104 174.317 18.9468C175.307 19.4126 176.29 19.8896 177.265 20.3771C177.935 20.7441 178.533 21.2062 179.061 21.7637C179.854 22.7586 180.136 23.8871 179.907 25.15C179.719 26.3588 179.111 27.288 178.083 27.9378C177.186 28.4416 176.223 28.7239 175.193 28.7843C173.389 28.869 171.628 28.6355 169.909 28.0837C169.625 27.9676 169.522 27.7582 169.602 27.4561C169.848 26.7292 170.111 26.0094 170.391 25.2959C170.534 25.1587 170.705 25.1149 170.901 25.1646C172.038 25.6132 173.215 25.871 174.434 25.9381C174.904 25.9522 175.352 25.8596 175.776 25.6608C176.239 25.3336 176.41 24.8908 176.287 24.3326C176.16 24.0789 175.98 23.8696 175.747 23.705C175.504 23.5348 175.251 23.3789 174.988 23.2379C174.07 22.7933 173.165 22.3263 172.273 21.8367C171.559 21.424 170.922 20.9131 170.361 20.3042C169.611 19.2851 169.387 18.1562 169.69 16.9179C170.042 15.5634 170.864 14.6147 172.157 14.0717C172.8 13.8187 173.461 13.6581 174.142 13.5901Z" fill="white"/>
</g>
<defs>
<clipPath id="clip0_729_1081">
<rect width="153.866" height="30.6094" fill="white" transform="translate(35.1335)"/>
</clipPath>
</defs>
</svg>
