<svg width="62" height="63" viewBox="0 0 62 63" fill="none" xmlns="http://www.w3.org/2000/svg">
<ellipse cx="31" cy="31.5" rx="31" ry="31.5" fill="white"/>
<path d="M24 28.5C24 26.6435 24.7375 24.863 26.0503 23.5503C27.363 22.2375 29.1435 21.5 31 21.5C32.8565 21.5 34.637 22.2375 35.9497 23.5503C37.2625 24.863 38 26.6435 38 28.5V34.5C38 35.4193 37.8189 36.3295 37.4672 37.1788C37.1154 38.0281 36.5998 38.7997 35.9497 39.4497C35.2997 40.0998 34.5281 40.6154 33.6788 40.9672C32.8295 41.3189 31.9193 41.5 31 41.5C30.0807 41.5 29.1705 41.3189 28.3212 40.9672C27.4719 40.6154 26.7003 40.0998 26.0503 39.4497C25.4002 38.7997 24.8846 38.0281 24.5328 37.1788C24.1811 36.3295 24 35.4193 24 34.5V28.5Z" stroke="#2AB7CA" stroke-width="1.5"/>
<path d="M29.5 28C29.5 27.6022 29.658 27.2206 29.9393 26.9393C30.2206 26.658 30.6022 26.5 31 26.5C31.3978 26.5 31.7794 26.658 32.0607 26.9393C32.342 27.2206 32.5 27.6022 32.5 28V30C32.5 30.3978 32.342 30.7794 32.0607 31.0607C31.7794 31.342 31.3978 31.5 31 31.5C30.6022 31.5 30.2206 31.342 29.9393 31.0607C29.658 30.7794 29.5 30.3978 29.5 30V28Z" stroke="#2AB7CA" stroke-width="1.5"/>
<path opacity="0.5" d="M31 21.5V26.5" stroke="#2AB7CA" stroke-width="1.5" stroke-linecap="round"/>
</svg>
