<svg width="73" height="73" viewBox="0 0 73 73" fill="none" xmlns="http://www.w3.org/2000/svg">
<rect width="72.5096" height="72.5096" rx="36.2548" fill="#4EC3D3"/>
<path d="M21.3298 21.3298H24.3298L28.3198 39.9598C28.4661 40.6421 28.8458 41.252 29.3933 41.6846C29.9409 42.1172 30.6221 42.3454 31.3198 42.3298H45.9898C46.6725 42.3287 47.3345 42.0948 47.8663 41.6666C48.3981 41.2384 48.768 40.6416 48.9148 39.9748L51.3898 28.8298H25.9348M31.7548 49.7548C31.7548 50.5833 31.0832 51.2548 30.2548 51.2548C29.4263 51.2548 28.7548 50.5833 28.7548 49.7548C28.7548 48.9264 29.4263 48.2548 30.2548 48.2548C31.0832 48.2548 31.7548 48.9264 31.7548 49.7548ZM48.2548 49.7548C48.2548 50.5833 47.5832 51.2548 46.7548 51.2548C45.9263 51.2548 45.2548 50.5833 45.2548 49.7548C45.2548 48.9264 45.9263 48.2548 46.7548 48.2548C47.5832 48.2548 48.2548 48.9264 48.2548 49.7548Z" stroke="white" stroke-width="3" stroke-linecap="round" stroke-linejoin="round"/>
</svg>
